<svg width="270" height="270" xmlns="http://www.w3.org/2000/svg"><g fill="none" fill-rule="evenodd"><circle fill="#3399D4" cx="135" cy="135" r="135"/><g stroke-width="4"><path d="M164.333 105.741h6.47c2.317 0 4.197 1.84 4.197 4.108v49.197c0 2.268-1.88 4.107-4.197 4.107H99.197c-2.317 0-4.197-1.84-4.197-4.107v-49.197c0-2.268 1.88-4.108 4.197-4.108h6.47" stroke="#FFF" stroke-linecap="round" stroke-linejoin="round"/><path d="M113.819 152.709V96.954c0-.914.757-1.655 1.688-1.655h39.288c.933 0 1.69.741 1.69 1.655v55.755m-42.659-46.93h42.666m-34.672 10.444h5.334m-5.191 10.387h5.333m-5.333 10.485l25.333.005" stroke="#84C1E5" stroke-linecap="round" stroke-linejoin="round"/><path d="M95 152.758h80m-50.685 20.834v-10.439m21.35 10.439v-10.439m-29.332 10.482h37.334" stroke="#FFF"/></g></g></svg>