<svg width="270" height="270" xmlns="http://www.w3.org/2000/svg"><g fill="none" fill-rule="evenodd"><circle fill="#F2BF46" cx="135" cy="135" r="135"/><g transform="translate(96 95)"><path d="M77 10.661C76.997 4.77 72.4-.002 66.734.001h-.013v58.675h.013C72.4 58.673 76.997 63.444 77 69.336 77 75.224 72.408 79.998 66.741 80H10.26C4.592 79.998 0 75.224 0 69.336c0-5.892 4.6-10.663 10.266-10.66h.013V0h-.013C4.6-.002 0 4.77 0 10.661v58.675M77 10v59M66 21H11" stroke="#FFF" stroke-width="4" stroke-linecap="round" stroke-linejoin="round"/><rect fill="#FFF" opacity=".5" x="22" y="33" width="13" height="35" rx="2"/><rect fill="#FFF" opacity=".5" x="42" y="33" width="13" height="12" rx="2"/><rect fill="#FFF" opacity=".5" x="42" y="55" width="13" height="13" rx="2"/></g></g></svg>