<svg width="48" height="66" xmlns="http://www.w3.org/2000/svg"><g transform="translate(-12 -3)" fill="none" fill-rule="evenodd"><path d="M0 0h72v72H0z"/><path d="M24 9v1.5a4.5 4.5 0 0 0 4.5 4.5h15a4.5 4.5 0 0 0 4.5-4.5V9h10a2 2 0 0 1 2 2v56a2 2 0 0 1-2 2H14a2 2 0 0 1-2-2V11a2 2 0 0 1 2-2h10z" fill="#3399D4" opacity=".3"/><path d="M33 6a3 3 0 0 1 6 0h5.5a.5.5 0 0 1 .5.5v5a.5.5 0 0 1-.5.5h-17a.5.5 0 0 1-.5-.5v-5a.5.5 0 0 1 .5-.5H33z" fill="#3399D4"/><rect fill="#3399D4" x="30" y="27" width="21" height="6" rx="2"/><rect fill="#3399D4" x="21" y="27" width="6" height="6" rx="2"/><rect fill="#3399D4" x="21" y="39" width="6" height="6" rx="2"/><rect fill="#3399D4" x="30" y="39" width="21" height="6" rx="2"/><rect fill="#3399D4" x="21" y="51" width="6" height="6" rx="2"/><rect fill="#3399D4" x="30" y="51" width="21" height="6" rx="2"/></g></svg>