<svg xmlns="http://www.w3.org/2000/svg" viewBox="0 0 40 40"><defs><style>.cls-1{fill:#010101}</style></defs><g id="Layer_2" data-name="Layer 2"><g id="Layer_1-2" data-name="Layer 1"><path class="cls-1" d="M20 0a20 20 0 1 0 20 20A20 20 0 0 0 20 0zm0 39a19 19 0 1 1 19-19 19.022 19.022 0 0 1-19 19z"/><circle class="cls-1" cx="20" cy="20" r="2.995"/><path class="cls-1" d="M24.147 12.167h-8.294a3.678 3.678 0 0 0-3.686 3.686v8.294a3.678 3.678 0 0 0 3.686 3.686h8.294a3.678 3.678 0 0 0 3.686-3.686v-8.294a3.678 3.678 0 0 0-3.686-3.686zM20 23.917A3.917 3.917 0 1 1 23.917 20 3.924 3.924 0 0 1 20 23.917zm4.608-7.603a.922.922 0 1 1 .921-.922.922.922 0 0 1-.921.922z"/></g></g></svg>