<svg width="62" height="56" xmlns="http://www.w3.org/2000/svg"><g stroke-width="2" fill="none" fill-rule="evenodd"><path d="M1 55.002c0-2.622.67-5.2 1.952-7.486l25.056-44.77a3.412 3.412 0 0 1 5.954-.002L59.046 47.5a15.31 15.31 0 0 1 1.956 7.484" stroke="#3399D4" stroke-linecap="round"/><path d="M61.012 52.998H47.008c-8.836 0-16-7.164-16-16V19.004l-.014 17.994c0 8.836-7.164 16-16 16H.99" stroke="#3399D4" stroke-linecap="round"/><path d="M60.992 7.002a6 6 0 1 1-12 .001 6 6 0 0 1 12 0z" stroke="#C1E0F2"/><path d="M30.993 11v4" stroke="#3399D4" stroke-linecap="round"/></g></svg>