<svg width="64" height="62" xmlns="http://www.w3.org/2000/svg"><g stroke="#3399D4" stroke-width="2" fill="none" fill-rule="evenodd"><path d="M1 1h4.764c1.874 0 3.48 1.34 3.816 3.186l6.842 37.636a3.88 3.88 0 0 0 3.816 3.186h37.118a3.878 3.878 0 0 0 3.87-3.638l1.768-28.246a3.88 3.88 0 0 0-3.872-4.122h-38.12" stroke-linecap="round"/><path d="M23.001 45.008h-6a6 6 0 0 0-6 6 6 6 0 0 0 6 6.002l3.984-.01"/><path d="M28.985 57a4 4 0 1 1-8 0 4 4 0 0 1 8 0zm30.017 0c0 2.208-1.792 4-4 4s-4-1.792-4-4 1.792-4 4-4 4 1.792 4 4zm-30.008.005h22.008"/></g></svg>