<svg width="62" height="61" xmlns="http://www.w3.org/2000/svg"><g stroke-width="2" fill="none" fill-rule="evenodd"><path d="M23.016.431v8.995c0 1.383.788 2.655 2.048 3.303 1.14.59 2.508.59 3.646 0l.224-.114a3.99 3.99 0 0 1 3.648 0l.224.114c1.14.59 2.506.59 3.646 0 1.262-.648 2.048-1.92 2.048-3.303V.43" stroke="#3399D4"/><path d="M25.018 1.936H7.604c-1.75 0-3.428.671-4.668 1.87A6.287 6.287 0 0 0 1 8.326V56.73c0 .848.348 1.661.968 2.261.618.6 1.46.937 2.338.937h53.388c.878 0 1.718-.337 2.338-.937.62-.6.968-1.413.968-2.26V8.326a6.281 6.281 0 0 0-1.938-4.521 6.71 6.71 0 0 0-4.666-1.87H35.018" stroke="#3399D4" stroke-linecap="round"/><path d="M20.756 50.285h-7.51c-1.24 0-2.246-.971-2.246-2.171v-3.397c0-1.2 1.006-2.174 2.246-2.174h7.51c1.24 0 2.244.974 2.244 2.174v3.397c0 1.2-1.004 2.171-2.244 2.171z" stroke="#C1E0F2"/></g></svg>