<svg width="62" height="47" xmlns="http://www.w3.org/2000/svg"><g stroke-width="2" fill="none" fill-rule="evenodd" stroke-linecap="round"><path d="M53 25.113h-8.727a1.133 1.133 0 0 1-1.134-1.132V5.507" stroke="#3399D4"/><path d="M9.099 40.996H3.27a2.272 2.272 0 0 1-2.272-2.272V3.272A2.273 2.273 0 0 1 3.275 1l29.458.046A2.272 2.272 0 0 1 35 3.318a2.271 2.271 0 0 0 2.272 2.27h9.82c1.104 0 2.048.792 2.236 1.878l2.842 16.15c.16.906.852 1.626 1.75 1.824l5.296 1.166a2.269 2.269 0 0 1 1.782 2.216v9.9a2.27 2.27 0 0 1-2.272 2.272h-3.228m-36.487.002h25.394M35.001 3.587v37.408" stroke="#3399D4"/><path d="M9 40.158a4.954 4.954 0 0 0 9.908 0 4.954 4.954 0 1 0-9.909 0zm36.02 0a4.954 4.954 0 0 0 9.908 0 4.954 4.954 0 1 0-9.907 0z" stroke="#C1E0F2"/></g></svg>