<svg width="66" height="51" xmlns="http://www.w3.org/2000/svg"><g stroke-width="2" fill="none" fill-rule="evenodd" stroke-linecap="round"><path d="M59.001 33.015h-52c-2.208 0-4-1.792-4-4V5.013a4 4 0 0 1 4-4h52a4 4 0 0 1 4 4v24.002c0 2.208-1.792 4-4 4z" stroke="#3399D4"/><path d="M38.89 15.839a6.01 6.01 0 0 1-7.064 7.062c-2.348-.444-4.268-2.364-4.714-4.714a6.01 6.01 0 0 1 7.064-7.062c2.348.446 4.268 2.366 4.714 4.714zM13 33.012v-5.998a4 4 0 0 0-4-4H3M13 1v6c0 2.208-1.792 4-4 4H3m50.032 22.012v-5.998c0-2.21 1.79-4 4-4h5.998M53.032 1v6a4 4 0 0 0 4 4h5.998" stroke="#3399D4"/><path d="M65.002 41.02H1m64.002 8.004H1" stroke="#C1E0F2"/></g></svg>