<svg xmlns="http://www.w3.org/2000/svg" viewBox="0 0 40 40"><defs><style>.cls-1{fill:#231f20}</style></defs><g id="Layer_2" data-name="Layer 2"><g id="Layer_1-2" data-name="Layer 1"><path class="cls-1" d="M20 0a20 20 0 1 0 20 20A20 20 0 0 0 20 0zm0 39a19 19 0 1 1 19-19 19.022 19.022 0 0 1-19 19z"/><path class="cls-1" d="M18.952 9.598c-3.48.389-6.948 3.204-7.091 7.227-.09 2.455.607 4.298 2.944 4.815 1.014-1.789-.327-2.184-.536-3.478-.856-5.304 6.118-8.922 9.768-5.218 2.526 2.564.863 10.453-3.21 9.633-3.901-.783 1.91-7.063-1.204-8.296-2.532-1.002-3.877 3.065-2.677 5.085-.703 3.474-2.219 6.748-1.605 11.106 1.99-1.444 2.66-4.209 3.21-7.092 1 .608 1.534 1.24 2.81 1.338 4.705.364 7.332-4.697 6.69-9.366-.57-4.138-4.7-6.244-9.099-5.754z"/></g></g></svg>