<svg width="66" height="58" xmlns="http://www.w3.org/2000/svg"><g fill="none" fill-rule="evenodd"><path d="M-3-7h72v72H-3z"/><path d="M43.374 56.939l21.849-32.773A.75.75 0 0 0 64.599 23H48V1.477a.75.75 0 0 0-1.374-.416L24.777 33.834A.75.75 0 0 0 25.401 35H42v21.523a.75.75 0 0 0 1.374.416z" fill="#3399D4"/><path d="M10.5 8h15a4.5 4.5 0 1 1 0 9h-15a4.5 4.5 0 1 1 0-9zm0 36h15a4.5 4.5 0 1 1 0 9h-15a4.5 4.5 0 1 1 0-9zm-6-18h12a4.5 4.5 0 1 1 0 9h-12a4.5 4.5 0 1 1 0-9z" fill="#3399D4" opacity=".3"/></g></svg>