<svg width="59" height="59" xmlns="http://www.w3.org/2000/svg"><g fill="none" fill-rule="evenodd"><path d="M-6-6h72v72H-6z"/><path d="M1.328 26.4L8.4 19.327a4 4 0 0 1 5.657 0l7.071 7.071a4 4 0 0 1 0 5.657l-7.07 7.071a4 4 0 0 1-5.658 0l-7.07-7.07a4 4 0 0 1 0-5.658zm36 0l7.071-7.072a4 4 0 0 1 5.657 0l7.071 7.071a4 4 0 0 1 0 5.657l-7.07 7.071a4 4 0 0 1-5.658 0l-7.07-7.07a4 4 0 0 1 0-5.658z" fill="#3399D4" opacity=".3"/><path d="M19.328 44.4l7.071-7.072a4 4 0 0 1 5.657 0l7.071 7.071a4 4 0 0 1 0 5.657l-7.07 7.071a4 4 0 0 1-5.658 0l-7.07-7.07a4 4 0 0 1 0-5.658zm0-36L26.4 1.327a4 4 0 0 1 5.657 0l7.07 7.073a4 4 0 0 1 0 5.657l-7.07 7.071a4 4 0 0 1-5.658 0l-7.07-7.07a4 4 0 0 1 0-5.658z" fill="#3399D4"/></g></svg>