<svg width="54" height="54" xmlns="http://www.w3.org/2000/svg"><g fill="none" fill-rule="evenodd"><path d="M-9-9h72v72H-9z"/><path d="M46.5 15a7.5 7.5 0 1 1 0-15 7.5 7.5 0 0 1 0 15zm0 39a7.5 7.5 0 1 1 0-15 7.5 7.5 0 0 1 0 15zm-39 0a7.5 7.5 0 1 1 0-15 7.5 7.5 0 0 1 0 15z" fill="#3399D4" opacity=".3"/><path d="M7.5 15a7.5 7.5 0 1 1 0-15 7.5 7.5 0 0 1 0 15zM24 3h6a3 3 0 0 1 0 6h-6a3 3 0 0 1 0-6zm0 42h6a3 3 0 0 1 0 6h-6a3 3 0 0 1 0-6zM6 21a3 3 0 0 1 3 3v6a3 3 0 0 1-6 0v-6a3 3 0 0 1 3-3zm42 0a3 3 0 0 1 3 3v6a3 3 0 0 1-6 0v-6a3 3 0 0 1 3-3z" fill="#3399D4"/></g></svg>