<svg width="20" height="22" xmlns="http://www.w3.org/2000/svg"><g fill="none" fill-rule="evenodd"><path d="M-2-1h24v24H-2z"/><path d="M5 10h8a2 2 0 0 0 2-2V7h2v1a4 4 0 0 1-4 4H5v2a1 1 0 0 1-2 0V8a1 1 0 1 1 2 0v2z" fill="#3399D4" opacity=".3"/><path d="M4 20a2 2 0 1 0 0-4 2 2 0 0 0 0 4zm0 2a4 4 0 1 1 0-8 4 4 0 0 1 0 8zM16 6a2 2 0 1 0 0-4 2 2 0 0 0 0 4zm0 2a4 4 0 1 1 0-8 4 4 0 0 1 0 8zM4 6a2 2 0 1 0 0-4 2 2 0 0 0 0 4zm0 2a4 4 0 1 1 0-8 4 4 0 0 1 0 8z" fill="#3399D4" fill-rule="nonzero"/></g></svg>