<svg width="22" height="16" xmlns="http://www.w3.org/2000/svg"><g transform="translate(-1 -4)" fill="none" fill-rule="evenodd"><path d="M0 0h24v24H0z"/><path d="M17.272 8.685a1 1 0 1 1 1.456-1.37l4 4.25a1 1 0 0 1 0 1.37l-4 4.25a1 1 0 0 1-1.456-1.37l3.355-3.565-3.355-3.565zm-10.544 0L3.373 12.25l3.355 3.565a1 1 0 0 1-1.456 1.37l-4-4.25a1 1 0 0 1 0-1.37l4-4.25a1 1 0 0 1 1.456 1.37z" fill="#3399D4" fill-rule="nonzero"/><rect fill="#3399D4" opacity=".3" transform="rotate(15 12 12)" x="11" y="4" width="2" height="16" rx="1"/></g></svg>