<svg width="22" height="15" xmlns="http://www.w3.org/2000/svg"><g fill="none" fill-rule="evenodd"><path d="M-1-4h24v24H-1z"/><path d="M3.953 10.303l-1.906-.606C3.65 4.644 6.673 2 11 2c4.327 0 7.349 2.644 8.953 7.697l-1.906.606C16.688 6.023 14.377 4 11 4s-5.688 2.022-7.047 6.303zM11 4a1 1 0 1 0 0-2 1 1 0 0 0 0 2z" fill="#3399D4" fill-rule="nonzero" opacity=".3"/><path d="M4.732 2h3.439a3.001 3.001 0 0 1 5.658 0h3.439a2 2 0 1 1 0 2h-3.439a3.001 3.001 0 0 1-5.658 0H4.732a2 2 0 1 1 0-2zM11 4a1 1 0 1 0 0-2 1 1 0 0 0 0 2zM3 15a3 3 0 1 1 0-6 3 3 0 0 1 0 6zm0-2a1 1 0 1 0 0-2 1 1 0 0 0 0 2zm16 2a3 3 0 1 1 0-6 3 3 0 0 1 0 6zm0-2a1 1 0 1 0 0-2 1 1 0 0 0 0 2z" fill="#3399D4"/></g></svg>