<svg width="48" height="48" viewBox="0 0 48 48" fill="none" xmlns="http://www.w3.org/2000/svg">
<path d="M40 44L42 44L42 40L40 40L40 44ZM24 40L22 40L22 44L24 44L24 40ZM40 40L24 40L24 44L40 44L40 40Z" fill="#14A2DF"/>
<path d="M24 8L26 8L26 4L24 4L24 8ZM8 4L6 4L6 8L8 8L8 4ZM24 4L8 4L8 8L24 8L24 4Z" fill="#14A2DF"/>
<path d="M24 42C33.9411 42 42 33.9411 42 24C42 18.9145 39.891 14.3216 36.5 11.0481M24 6C14.0589 6 6 14.0589 6 24C6 28.8556 7.9226 33.2622 11.0481 36.5" stroke="#14A2DF" stroke-width="4" stroke-linecap="square" stroke-linejoin="round"/>
</svg>
