<svg width="16" height="16" viewBox="0 0 16 16" fill="none" xmlns="http://www.w3.org/2000/svg">
<g clip-path="url(#clip0_731_5361)">
<rect width="16" height="16" rx="1" fill="#16232B"/>
<path fill-rule="evenodd" clip-rule="evenodd" d="M4.49182 6.28219C4.57175 6.18587 4.62503 6.11357 4.68752 6.04752C5.00723 5.71053 5.4332 5.54294 5.94544 5.51736C6.4266 5.49309 6.90046 5.50509 7.35941 5.6531C7.7267 5.77187 8.02866 5.9546 8.25417 6.22007C8.33981 6.32135 8.3858 6.36416 8.49396 6.22581C8.82001 5.80868 9.31005 5.59933 9.89334 5.53877C10.4154 5.48447 10.94 5.47142 11.4485 5.6129C12.2963 5.84862 12.7222 6.37721 12.8967 7.07104C12.9623 7.33129 12.9972 7.5952 12.9963 7.8625C12.9937 8.68032 12.9909 9.49789 12.9998 10.3154C13.0017 10.465 12.9478 10.5044 12.7727 10.5C12.3757 10.4887 11.9783 10.4887 11.5814 10.5C11.3822 10.506 11.3137 10.4668 11.3162 10.2891C11.3261 9.5521 11.324 8.81505 11.3099 8.07812C11.3057 7.85102 11.2823 7.62261 11.1969 7.40125C11.0282 6.9648 10.7513 6.77111 10.2378 6.74788C9.65292 6.72178 9.24154 6.90998 9.02903 7.30049C8.91579 7.50325 8.85591 7.72342 8.85332 7.94655C8.84951 8.73331 8.84539 9.52033 8.8511 10.3066C8.85205 10.4488 8.81177 10.5047 8.62653 10.5C8.2069 10.4894 7.78698 10.4894 7.36734 10.5C7.19194 10.5039 7.13898 10.4645 7.14088 10.3152C7.14944 9.55323 7.14659 8.79126 7.14215 8.0293C7.14088 7.80011 7.09235 7.57615 7.01337 7.35479C6.88397 6.9909 6.58963 6.79304 6.14431 6.75441C5.69075 6.71447 5.27429 6.78443 4.9882 7.11594C4.73256 7.41117 4.67895 7.75652 4.67451 8.105C4.66531 8.8419 4.66658 9.57933 4.6761 10.316C4.678 10.4663 4.62345 10.5037 4.449 10.5C4.02193 10.4919 3.5947 10.4914 3.16761 10.4984C3.04105 10.5 2.9995 10.4663 2.99982 10.3611C3.00299 8.83695 3.00299 7.31302 2.99982 5.7891C2.99982 5.69226 3.03788 5.65858 3.15524 5.66041C3.47749 5.66485 3.79974 5.66563 4.12199 5.66041C4.23395 5.65806 4.28216 5.69695 4.31008 5.78049C4.36304 5.93919 4.42394 6.09608 4.49182 6.28219Z" fill="white"/>
</g>
<defs>
<clipPath id="clip0_731_5361">
<rect width="16" height="16" fill="white"/>
</clipPath>
</defs>
</svg>
