<svg width="122" height="20" viewBox="0 0 122 20" fill="none" xmlns="http://www.w3.org/2000/svg">
    <path fill-rule="evenodd" clip-rule="evenodd" d="M98.7911 10.2138C99.4078 10.1538 99.4808 10.4058 99.416 10.8958C98.5444 17.4018 91.2516 21.6738 84.9991 19.3678C81.1579 17.9508 78.5235 14.3068 78.6119 10.2908C78.7331 4.8838 82.8817 0.930801 87.7342 0.146801C92.0873 -0.558199 95.8185 1.3028 98.2031 5.1538C98.9597 6.3728 98.9607 6.3758 97.7098 7.0838C93.9344 9.2208 90.1621 11.3688 86.3692 13.4798C85.7772 13.8098 85.8214 13.9678 86.3147 14.3298C88.1228 15.6598 90.5938 15.4588 92.5221 13.8018C93.4143 13.0368 93.9714 12.0908 94.1564 10.9478C94.2006 10.6728 94.2643 10.5338 94.584 10.5158C95.9881 10.4328 97.3911 10.3508 98.7901 10.2138H98.7911ZM84.8079 10.5058C87.1586 9.1758 89.5073 7.8408 91.8663 6.5298C92.3186 6.2798 92.3802 6.1318 91.9249 5.8088C90.3728 4.7038 88.7313 4.4988 86.9983 5.3188C85.1347 6.2028 83.963 7.5698 83.9527 9.6928C83.9527 9.8128 83.9506 9.9308 83.9537 10.0498C83.9712 10.9668 83.9846 10.9718 84.8079 10.5058V10.5058ZM121.289 11.3798C121.001 11.7288 121.053 12.1768 120.92 12.5718C119.512 16.7548 116.589 19.1858 112.128 19.8188C107.762 20.4368 102.993 18.2428 101.058 13.9358C98.457 8.1408 102.083 1.6888 108.476 0.436801C113.315 -0.511199 117.68 1.4318 120.027 5.3938C120.591 6.3438 120.94 7.3738 121.141 8.4518C121.166 8.5828 121.114 8.7428 121.289 8.8168V11.3798V11.3798ZM110.71 15.1068C113.734 15.1168 115.69 13.1478 115.772 10.1668C115.854 7.1738 113.832 4.9668 110.857 4.9348C107.587 4.8998 105.728 7.4018 105.703 9.9338C105.672 13.1518 107.568 15.0938 110.71 15.1068ZM4.83513 3.1948C5.09415 2.8258 5.26684 2.5488 5.46933 2.2958C6.50542 1.0048 7.88586 0.362801 9.54588 0.264801C11.1052 0.171801 12.6408 0.217801 14.1281 0.784801C15.3184 1.2398 16.297 1.9398 17.0278 2.9568C17.3053 3.3448 17.4543 3.5088 17.8049 2.9788C18.8615 1.3808 20.4496 0.578801 22.3398 0.346801C24.0317 0.138801 25.7318 0.0888012 27.3795 0.630801C30.127 1.5338 31.5074 3.5588 32.0728 6.2168C32.2855 7.2138 32.3986 8.2248 32.3955 9.2488C32.3873 12.3818 32.3781 15.5138 32.4068 18.6458C32.413 19.2188 32.2383 19.3698 31.6709 19.3528C30.3844 19.3096 29.0967 19.3096 27.8102 19.3528C27.1647 19.3758 26.9427 19.2258 26.9509 18.5448C26.9831 15.7215 26.9762 12.8979 26.9303 10.0748C26.917 9.2048 26.8409 8.3298 26.5644 7.4818C26.0176 5.8098 25.1202 5.0678 23.4561 4.9788C21.5607 4.8788 20.2276 5.5998 19.5389 7.0958C19.1719 7.87254 18.9778 8.71598 18.9694 9.5708C18.9571 12.5848 18.9437 15.5998 18.9622 18.6118C18.9653 19.1568 18.8348 19.3708 18.2345 19.3528C16.8746 19.3123 15.5137 19.3123 14.1538 19.3528C13.5854 19.3678 13.4138 19.2168 13.4199 18.6448C13.4477 15.7258 13.4384 12.8068 13.424 9.8878C13.4199 9.0098 13.2627 8.1518 13.0067 7.3038C12.5874 5.9098 11.6335 5.1518 10.1904 5.0038C8.72049 4.8508 7.37089 5.1188 6.44375 6.3888C5.61528 7.5198 5.44157 8.8428 5.42718 10.1778C5.39738 13.0008 5.40149 15.8258 5.43232 18.6478C5.43849 19.2238 5.2617 19.3668 4.69636 19.3528C3.31237 19.3217 1.92784 19.3197 0.543751 19.3468C0.13363 19.3528 -0.00102204 19.2238 5.83262e-06 18.8208C0.0102846 12.9818 0.0102846 7.1438 5.83262e-06 1.3058C5.83262e-06 0.934801 0.123351 0.805801 0.503664 0.812801C1.54798 0.829801 2.59231 0.832801 3.63663 0.812801C3.99947 0.803801 4.1557 0.952801 4.24616 1.2728C4.41781 1.8808 4.61619 2.4818 4.83616 3.1948H4.83513ZM55.1475 9.7088C55.165 14.9158 51.2899 19.1788 46.2482 19.7928C42.1531 20.2928 38.6769 19.0998 36.1606 15.8658C32.4593 11.1088 33.9075 4.5928 39.2103 1.5988C45.0877 -1.7192 52.6395 0.994802 54.7107 7.1688C55.0232 8.0988 55.1753 9.0528 55.1475 9.7088V9.7088ZM44.5738 15.1068C47.3778 15.2638 49.6361 13.3038 49.7029 10.0468C49.7635 7.0528 47.7191 5.0488 44.765 4.9448C41.5004 4.8268 39.5824 7.5528 39.6266 9.9458C39.6852 13.2038 41.4275 15.0858 44.5738 15.1058V15.1068ZM62.1504 3.0968C62.5338 2.8868 62.6418 2.5488 62.8628 2.3038C63.8927 1.1668 65.193 0.544801 66.7132 0.355801C68.8049 0.0958012 70.8853 0.115801 72.8722 0.902801C75.5827 1.9778 76.9035 4.1108 77.4123 6.8128C77.6806 8.2378 77.7207 9.6818 77.7104 11.1298C77.6914 13.6684 77.6935 16.2072 77.7166 18.7458C77.7197 19.2178 77.5727 19.3578 77.0978 19.3478C75.7388 19.3179 74.3792 19.3189 73.0202 19.3508C72.458 19.3678 72.2699 19.2268 72.2771 18.6488C72.3079 15.8958 72.2915 13.1438 72.2904 10.3908C72.2827 9.75234 72.2076 9.11634 72.0664 8.4928C71.4476 5.5578 69.1955 4.6578 66.5652 5.0478C63.793 5.4588 62.4167 7.0928 62.245 9.8488C62.0631 12.7628 62.1926 15.6798 62.1731 18.5958C62.171 19.1838 62.0168 19.3718 61.4021 19.3528C60.0207 19.3088 58.6372 19.3268 57.2516 19.3468C56.8384 19.3528 56.714 19.2208 56.715 18.8188C56.7243 12.9828 56.7253 7.1468 56.713 1.3108C56.712 0.870801 56.9031 0.806801 57.2804 0.812801C58.4686 0.828801 59.6599 0.834801 60.8492 0.808801C61.2418 0.800801 61.4093 0.961801 61.5183 1.2948C61.7136 1.8908 61.9325 2.4798 62.1504 3.0978V3.0968Z" fill="#F2F2F2"/>
</svg>