<svg width="729" height="833" xmlns="http://www.w3.org/2000/svg"><defs><linearGradient x1="90.578%" y1="37.335%" x2="11.628%" y2="62.917%" id="a"><stop stop-color="#BBD0FE" offset="0%"/><stop stop-color="#E0EBFF" offset="100%"/></linearGradient><linearGradient x1="583.614%" y1="-43.765%" x2="583.175%" y2="51.38%" id="b"><stop stop-color="#BBD0FE" offset="0%"/><stop stop-color="#E0EBFF" offset="100%"/></linearGradient><linearGradient x1="52.252%" y1="52.162%" x2="85.663%" y2="84.232%" id="c"><stop stop-color="#E1ECFF" offset="0%"/><stop stop-color="#FFF" offset="100%"/></linearGradient><linearGradient x1="74.417%" y1="39.293%" x2="91.967%" y2="31.687%" id="d"><stop stop-color="#B7DFF7" offset="0%"/><stop stop-color="#DDEFFA" offset="100%"/></linearGradient><linearGradient x1="81.969%" y1="21.969%" x2="42.572%" y2="56.513%" id="e"><stop stop-color="#2186C0" offset="0%"/><stop stop-color="#3399D4" offset="100%"/></linearGradient><linearGradient x1="87.178%" y1="81.285%" x2="-22.215%" y2="-10.767%" id="f"><stop stop-color="#08517B" offset="0%"/><stop stop-color="#1879B1" offset="100%"/></linearGradient><linearGradient x1="63.92%" y1="27.598%" x2="44.766%" y2="58.417%" id="g"><stop stop-color="#73AAC9" offset="0%"/><stop stop-color="#9AC5DE" offset="100%"/></linearGradient><linearGradient x1="74.876%" y1="10.066%" x2="40.65%" y2="65.012%" id="h"><stop stop-color="#DCEFFA" offset="0%"/><stop stop-color="#CBECFF" offset="100%"/></linearGradient><linearGradient x1="1096.054%" y1="2157.337%" x2="49.661%" y2="53.33%" id="i"><stop stop-color="#28C4FF" offset="0%"/><stop stop-color="#34EDCB" offset="100%"/></linearGradient><linearGradient x1="-666.197%" y1="-215.99%" x2="-1968.612%" y2="-1776.782%" id="j"><stop stop-color="#28C4FF" offset="0%"/><stop stop-color="#34EDCB" offset="100%"/></linearGradient><linearGradient x1="85.738%" y1="6876.828%" x2="94.43%" y2="-1514.394%" id="k"><stop stop-color="#28C4FF" offset="0%"/><stop stop-color="#34EDCB" offset="100%"/></linearGradient><linearGradient x1="92.618%" y1="6133.392%" x2="101.311%" y2="-2257.831%" id="l"><stop stop-color="#28C4FF" offset="0%"/><stop stop-color="#34EDCB" offset="100%"/></linearGradient><linearGradient x1="869.145%" y1="1699.204%" x2="-177.248%" y2="-405.565%" id="m"><stop stop-color="#3158D3" offset="0%"/><stop stop-color="#306EF3" offset="100%"/></linearGradient><linearGradient x1="-883.455%" y1="-899.498%" x2="-2185.517%" y2="-2459.146%" id="n"><stop stop-color="#28C4FF" offset="0%"/><stop stop-color="#34EDCB" offset="100%"/></linearGradient><linearGradient x1="102.767%" y1="5049.795%" x2="111.46%" y2="-3341.427%" id="o"><stop stop-color="#28C4FF" offset="0%"/><stop stop-color="#34EDCB" offset="100%"/></linearGradient><linearGradient x1="109.485%" y1="4306.172%" x2="118.178%" y2="-4085.05%" id="p"><stop stop-color="#28C4FF" offset="0%"/><stop stop-color="#34EDCB" offset="100%"/></linearGradient><linearGradient x1="-598.184%" y1="-829.378%" x2="-1401.894%" y2="-1871.411%" id="q"><stop stop-color="#28C4FF" offset="0%"/><stop stop-color="#34EDCB" offset="100%"/></linearGradient><linearGradient x1="-1627.352%" y1="-3341.535%" x2="-580.96%" y2="-1236.696%" id="r"><stop stop-color="#3158D3" offset="0%"/><stop stop-color="#306EF3" offset="100%"/></linearGradient><linearGradient x1="-2491.889%" y1="-4700.679%" x2="-796.238%" y2="-1547.867%" id="s"><stop stop-color="#28C4FF" offset="0%"/><stop stop-color="#34EDCB" offset="100%"/></linearGradient><linearGradient x1="222.809%" y1="-14081.415%" x2="214.117%" y2="-5690.193%" id="t"><stop stop-color="#28C4FF" offset="0%"/><stop stop-color="#34EDCB" offset="100%"/></linearGradient><linearGradient x1="216.01%" y1="-13337.71%" x2="207.317%" y2="-4946.488%" id="u"><stop stop-color="#28C4FF" offset="0%"/><stop stop-color="#34EDCB" offset="100%"/></linearGradient><linearGradient x1="-1854.254%" y1="-3797.684%" x2="-807.861%" y2="-1694.37%" id="v"><stop stop-color="#3158D3" offset="0%"/><stop stop-color="#306EF3" offset="100%"/></linearGradient><linearGradient x1="-2859.589%" y1="-5384.284%" x2="-1163.96%" y2="-2233.689%" id="w"><stop stop-color="#28C4FF" offset="0%"/><stop stop-color="#34EDCB" offset="100%"/></linearGradient><linearGradient x1="239.838%" y1="-15908.448%" x2="231.146%" y2="-7517.225%" id="x"><stop stop-color="#28C4FF" offset="0%"/><stop stop-color="#34EDCB" offset="100%"/></linearGradient><linearGradient x1="232.877%" y1="-15164.743%" x2="224.104%" y2="-6773.602%" id="y"><stop stop-color="#28C4FF" offset="0%"/><stop stop-color="#34EDCB" offset="100%"/></linearGradient><linearGradient x1="-3234.723%" y1="-6082.04%" x2="-1539.06%" y2="-2932.947%" id="z"><stop stop-color="#28C4FF" offset="0%"/><stop stop-color="#34EDCB" offset="100%"/></linearGradient><linearGradient x1="250.272%" y1="-17028.888%" x2="241.579%" y2="-8637.665%" id="A"><stop stop-color="#28C4FF" offset="0%"/><stop stop-color="#34EDCB" offset="100%"/></linearGradient><linearGradient x1="-419.913%" y1="38.003%" x2="-1223.638%" y2="-1004.652%" id="B"><stop stop-color="#28C4FF" offset="0%"/><stop stop-color="#34EDCB" offset="100%"/></linearGradient><linearGradient x1="-816.541%" y1="-295.775%" x2="-2120.267%" y2="-1856.334%" id="C"><stop stop-color="#28C4FF" offset="0%"/><stop stop-color="#34EDCB" offset="100%"/></linearGradient><linearGradient x1="89.922%" y1="6241.125%" x2="98.696%" y2="-2150.016%" id="D"><stop stop-color="#28C4FF" offset="0%"/><stop stop-color="#34EDCB" offset="100%"/></linearGradient><linearGradient x1="96.964%" y1="5497.689%" x2="105.657%" y2="-2893.534%" id="E"><stop stop-color="#28C4FF" offset="0%"/><stop stop-color="#34EDCB" offset="100%"/></linearGradient><linearGradient x1="843.314%" y1="1647.258%" x2="-203.079%" y2="-457.581%" id="F"><stop stop-color="#3158D3" offset="0%"/><stop stop-color="#306EF3" offset="100%"/></linearGradient><linearGradient x1="-1032.965%" y1="-979.93%" x2="-2335.052%" y2="-2540.567%" id="G"><stop stop-color="#28C4FF" offset="0%"/><stop stop-color="#34EDCB" offset="100%"/></linearGradient><linearGradient x1="106.858%" y1="4414.186%" x2="115.55%" y2="-3977.036%" id="H"><stop stop-color="#28C4FF" offset="0%"/><stop stop-color="#34EDCB" offset="100%"/></linearGradient><linearGradient x1="113.576%" y1="3670.656%" x2="122.269%" y2="-4720.566%" id="I"><stop stop-color="#28C4FF" offset="0%"/><stop stop-color="#34EDCB" offset="100%"/></linearGradient><linearGradient x1="-690.47%" y1="-883.214%" x2="-1494.195%" y2="-1925.834%" id="J"><stop stop-color="#28C4FF" offset="0%"/><stop stop-color="#34EDCB" offset="100%"/></linearGradient><linearGradient x1="-1653.664%" y1="-3394.392%" x2="-607.272%" y2="-1289.623%" id="K"><stop stop-color="#28C4FF" offset="0%"/><stop stop-color="#34EDCB" offset="100%"/></linearGradient><linearGradient x1="-2534.527%" y1="-4777.381%" x2="-838.876%" y2="-1626.301%" id="L"><stop stop-color="#3158D3" offset="0%"/><stop stop-color="#306EF3" offset="100%"/></linearGradient><linearGradient x1="227.252%" y1="-14728.067%" x2="218.479%" y2="-6336.926%" id="M"><stop stop-color="#3158D3" offset="0%"/><stop stop-color="#306EF3" offset="100%"/></linearGradient><linearGradient x1="220.21%" y1="-13984.537%" x2="211.518%" y2="-5593.315%" id="N"><stop stop-color="#28C4FF" offset="0%"/><stop stop-color="#34EDCB" offset="100%"/></linearGradient><linearGradient x1="-2902.227%" y1="-5466.006%" x2="-1206.585%" y2="-2313.966%" id="O"><stop stop-color="#28C4FF" offset="0%"/><stop stop-color="#34EDCB" offset="100%"/></linearGradient><linearGradient x1="243.945%" y1="-16555.181%" x2="235.252%" y2="-8163.959%" id="P"><stop stop-color="#28C4FF" offset="0%"/><stop stop-color="#34EDCB" offset="100%"/></linearGradient><linearGradient x1="237.146%" y1="-15811.57%" x2="228.453%" y2="-7420.348%" id="Q"><stop stop-color="#28C4FF" offset="0%"/><stop stop-color="#34EDCB" offset="100%"/></linearGradient><linearGradient x1="60.813%" y1="99.804%" x2="50.271%" y2="51.275%" id="R"><stop stop-color="#1C80BA" offset="0%"/><stop stop-color="#3399D4" offset="100%"/></linearGradient><linearGradient x1="1.933%" y1="13.657%" x2="102.255%" y2="86.118%" id="S"><stop stop-color="#28C4FF" offset="0%"/><stop stop-color="#34EDCB" offset="100%"/></linearGradient><linearGradient x1="0%" y1="50%" x2="100%" y2="50%" id="T"><stop stop-color="#5781DB" offset="0%"/><stop stop-color="#A0BDFD" offset="100%"/></linearGradient><linearGradient x1="0%" y1="50%" x2="100.027%" y2="50%" id="U"><stop stop-color="#28C4FF" offset="0%"/><stop stop-color="#34EDCB" offset="100%"/></linearGradient><linearGradient x1="99.756%" y1="50.029%" x2=".081%" y2="50.029%" id="V"><stop stop-color="#5781DB" offset="0%"/><stop stop-color="#A0BDFD" offset="100%"/></linearGradient><linearGradient x1="100%" y1="50%" x2="0%" y2="50%" id="W"><stop stop-color="#5781DB" offset="0%"/><stop stop-color="#A0BDFD" offset="100%"/></linearGradient><linearGradient x1=".055%" y1="49.991%" x2="100%" y2="49.991%" id="X"><stop stop-color="#28C4FF" offset="0%"/><stop stop-color="#34EDCB" offset="100%"/></linearGradient><linearGradient x1="-.016%" y1="50%" x2="99.999%" y2="50%" id="Y"><stop stop-color="#1C80BA" offset="0%"/><stop stop-color="#3399D4" offset="100%"/></linearGradient><linearGradient x1="100.018%" y1="50.007%" x2=".018%" y2="50.007%" id="Z"><stop stop-color="#1C80BA" offset="0%"/><stop stop-color="#3399D4" offset="100%"/></linearGradient><linearGradient x1="0%" y1="49.995%" x2="99.999%" y2="49.995%" id="aa"><stop stop-color="#28C4FF" offset="0%"/><stop stop-color="#34EDCB" offset="100%"/></linearGradient><linearGradient x1=".001%" y1="50%" x2="100%" y2="50%" id="ab"><stop stop-color="#28C4FF" offset="0%"/><stop stop-color="#34EDCB" offset="100%"/></linearGradient><linearGradient x1="150.643%" y1="134.17%" x2="-161.666%" y2="-127.097%" id="ac"><stop stop-color="#1B73A6" offset="0%"/><stop stop-color="#1370A6" offset="100%"/></linearGradient><linearGradient x1="-.007%" y1="50.17%" x2="100.095%" y2="50.17%" id="ad"><stop stop-color="#85C1E2" offset="0%"/><stop stop-color="#B7DFF6" offset="100%"/></linearGradient><linearGradient x1="-18.507%" y1="11.125%" x2="141.058%" y2="101.589%" id="ae"><stop stop-color="#1C80BA" offset="0%"/><stop stop-color="#3399D4" offset="100%"/></linearGradient><linearGradient x1="60.257%" y1="54.853%" x2="153.622%" y2="99.049%" id="af"><stop stop-color="#3158D3" offset="0%"/><stop stop-color="#306EF3" offset="100%"/></linearGradient><linearGradient x1="-.012%" y1="50%" x2="100%" y2="50%" id="ag"><stop stop-color="#253C6F" offset="0%"/><stop stop-color="#3068E8" offset="100%"/></linearGradient><linearGradient x1="60.253%" y1="54.853%" x2="153.632%" y2="99.049%" id="ah"><stop stop-color="#BBD0FE" offset="0%"/><stop stop-color="#E0EBFF" offset="100%"/></linearGradient><linearGradient x1="30.418%" y1="26.448%" x2="92.083%" y2="100.508%" id="ai"><stop stop-color="#E1ECFF" offset="0%"/><stop stop-color="#FFF" offset="100%"/></linearGradient><linearGradient x1="74.876%" y1="10.066%" x2="40.65%" y2="65.012%" id="aj"><stop stop-color="#EFF9FF" offset="0%"/><stop stop-color="#E5F6FF" offset="100%"/></linearGradient><linearGradient x1="41.979%" y1="108.188%" x2="56.785%" y2=".825%" id="ak"><stop stop-color="#28C4FF" offset="0%"/><stop stop-color="#34EDCB" offset="100%"/></linearGradient><linearGradient x1="17.373%" y1="14.139%" x2="80.007%" y2="82.974%" id="al"><stop stop-color="#E1ECFF" offset="0%"/><stop stop-color="#FFF" offset="100%"/></linearGradient><linearGradient x1=".162%" y1="49.777%" x2="100%" y2="49.777%" id="am"><stop stop-color="#CBDDFE" offset="0%"/><stop stop-color="#EFF5FF" offset="100%"/></linearGradient><linearGradient x1="0%" y1="49.889%" x2="99.933%" y2="49.889%" id="an"><stop stop-color="#CBDDFE" offset="0%"/><stop stop-color="#EFF5FF" offset="100%"/></linearGradient><linearGradient x1="-.022%" y1="49.98%" x2="100.011%" y2="49.98%" id="ao"><stop stop-color="#28C4FF" offset="0%"/><stop stop-color="#34EDCB" offset="100%"/></linearGradient><linearGradient x1="-18.292%" y1="-12.264%" x2="135.412%" y2="127.884%" id="ap"><stop stop-color="#E1ECFF" offset="0%"/><stop stop-color="#FFF" offset="100%"/></linearGradient><linearGradient x1="-.173%" y1="50.337%" x2="100.007%" y2="50.337%" id="aq"><stop stop-color="#28C4FF" offset="0%"/><stop stop-color="#34EDCB" offset="100%"/></linearGradient><linearGradient x1="41.948%" y1="108.183%" x2="56.762%" y2=".777%" id="ar"><stop stop-color="#28C4FF" offset="0%"/><stop stop-color="#34EDCB" offset="100%"/></linearGradient><linearGradient x1="60.626%" y1="27.164%" x2="-124.468%" y2="274.781%" id="as"><stop stop-color="#253C6F" offset="0%"/><stop stop-color="#3068E8" offset="100%"/></linearGradient><linearGradient x1="62.98%" y1="29.393%" x2="-53.023%" y2="317.784%" id="at"><stop stop-color="#253C6F" offset="0%"/><stop stop-color="#3068E8" offset="100%"/></linearGradient><linearGradient x1="45.245%" y1="42.325%" x2="5.834%" y2="122.939%" id="au"><stop stop-color="#253C6F" offset="0%"/><stop stop-color="#3068E8" offset="100%"/></linearGradient><linearGradient x1="100.034%" y1="50.016%" x2=".057%" y2="50.016%" id="av"><stop stop-color="#28C4FF" offset="0%"/><stop stop-color="#34EDCB" offset="100%"/></linearGradient><linearGradient x1="55.852%" y1="46.235%" x2="-33.986%" y2="-40.815%" id="aw"><stop stop-color="#253C6F" offset="0%"/><stop stop-color="#3068E8" offset="100%"/></linearGradient><linearGradient x1="100%" y1="50.003%" x2="0%" y2="50.003%" id="ax"><stop stop-color="#3399D4" offset="0%"/><stop stop-color="#83D1FF" offset="100%"/></linearGradient><linearGradient x1="57.491%" y1="-12.877%" x2="31.526%" y2="66.759%" id="ay"><stop stop-color="#3158D3" offset="0%"/><stop stop-color="#306EF3" offset="100%"/></linearGradient><linearGradient x1="22.174%" y1="8.656%" x2="212.675%" y2="269.372%" id="az"><stop stop-color="#253C6F" offset="0%"/><stop stop-color="#3068E8" offset="100%"/></linearGradient><linearGradient x1="47.172%" y1="65.281%" x2="25.787%" y2="133.335%" id="aA"><stop stop-color="#253C6F" offset="0%"/><stop stop-color="#3068E8" offset="100%"/></linearGradient><linearGradient x1="-50.237%" y1="-117.991%" x2="108.551%" y2="182.351%" id="aB"><stop stop-color="#253C6F" offset="0%"/><stop stop-color="#3068E8" offset="100%"/></linearGradient><linearGradient x1="32.594%" y1="82.055%" x2="51.829%" y2="26.7%" id="aC"><stop stop-color="#3158D3" offset="0%"/><stop stop-color="#306EF3" offset="100%"/></linearGradient><linearGradient x1="67.651%" y1="18.438%" x2="4.163%" y2="103.595%" id="aD"><stop stop-color="#253C6F" offset="0%"/><stop stop-color="#3068E8" offset="100%"/></linearGradient><linearGradient x1="59.725%" y1="-42.489%" x2="24.582%" y2="313.154%" id="aE"><stop stop-color="#253C6F" offset="0%"/><stop stop-color="#3068E8" offset="100%"/></linearGradient><linearGradient x1="64.268%" y1="-42.926%" x2="28.246%" y2="228.053%" id="aF"><stop stop-color="#253C6F" offset="0%"/><stop stop-color="#3068E8" offset="100%"/></linearGradient><linearGradient x1="46.006%" y1="33.483%" x2="69.336%" y2="138.583%" id="aG"><stop stop-color="#253C6F" offset="0%"/><stop stop-color="#3068E8" offset="100%"/></linearGradient><linearGradient x1="58.002%" y1="62.928%" x2="-75.31%" y2="-47.52%" id="aH"><stop stop-color="#253C6F" offset="0%"/><stop stop-color="#3068E8" offset="100%"/></linearGradient><linearGradient x1="52.308%" y1="38.92%" x2="66.016%" y2="168.946%" id="aI"><stop stop-color="#253C6F" offset="0%"/><stop stop-color="#3068E8" offset="100%"/></linearGradient><linearGradient x1="91.536%" y1="34.975%" x2="16.283%" y2="103.943%" id="aJ"><stop stop-color="#28C4FF" offset="0%"/><stop stop-color="#34EDCB" offset="100%"/></linearGradient></defs><g fill="none" fill-rule="evenodd"><path d="M373.09 504.637c-8.068 0-15.789-1.632-21.548-4.961L15.094 305.09c-5.922-3.411-9.142-8.216-9.142-13.54 0-6.282 4.574-12.533 12.584-17.145l327.21-189.268c14.546-8.41 36.687-9.299 49.353-1.972l336.44 194.584c5.923 3.411 9.15 8.224 9.15 13.54 0 6.282-4.582 12.533-12.584 17.146L400.888 497.703c-7.929 4.583-18.122 6.934-27.797 6.934zm.467-422.784c-9.001 0-18.506 2.225-25.953 6.496L20.357 277.617c-6.803 3.937-10.734 9.017-10.734 13.933 0 3.938 2.591 7.609 7.292 10.33l336.44 194.585c11.645 6.733 32.128 5.85 45.652-1.973l327.27-189.267c6.802-3.938 10.71-9.018 10.71-13.934 0-3.938-2.59-7.609-7.298-10.33L393.249 86.377c-5.25-3.033-12.304-4.524-19.7-4.524h.008z" fill="url(#a)" fill-rule="nonzero" transform="translate(47 328)"/><path d="M267.848 99.198L111.202 8.602c-11.644-6.74-32.127-5.85-45.652 1.973L1.888 47.408 0 44.197 63.662 7.364c14.546-8.417 36.688-9.3 49.353-1.973L269.7 95.987l-1.85 3.211z" fill="url(#b)" transform="translate(47 328)"/><g transform="translate(182)"><path d="M623.823 512.055c4.836 2.791 4.866 7.322.06 10.105L412.598 644.898c-4.806 2.79-12.59 2.79-17.455 0L32.637 435.688c-4.836-2.79-4.858-7.313-.06-10.104l211.291-122.738c4.8-2.79 12.59-2.79 17.456 0l362.5 209.21z" fill="url(#c)"/><path d="M598.518 211.149L236.011 1.939c-2.43-1.406-4.636-1.532-6.228-.607l-8.524 4.953c1.592-.925 3.799-.8 6.228.607l362.507 209.209c4.829 2.79 8.739 9.557 8.724 15.109l-.696 244.29c0 2.762-.978 4.701-2.555 5.62l8.531-4.953c1.57-.918 2.54-2.858 2.548-5.619l.696-244.29c.022-5.553-3.888-12.319-8.724-15.11z" fill="url(#d)"/><path d="M589.994 216.101c4.829 2.79 8.739 9.557 8.724 15.109l-.696 244.29c0 5.56-3.947 7.796-8.783 5.005l-362.5-209.224c-4.836-2.79-8.746-9.55-8.724-15.102l.689-244.29c0-5.56 3.947-7.803 8.783-5.012l362.507 209.224z" fill="url(#e)"/><path fill="url(#f)" d="M590.883 454.07l.607-215.79L225.858 27.264l-.607 215.79z"/><path d="M595.126 494.03L383.843 616.767c-4.8 2.791-12.59 2.791-17.455 0L3.888 407.558c-2.436-1.406-3.651-3.25-3.644-5.093l-.037 13.147c0 1.836 1.207 3.702 3.644 5.086l362.5 209.21c4.836 2.79 12.656 2.79 17.455 0L595.089 507.17c2.392-1.385 3.585-3.198 3.592-5.02v-13.14c.03 1.792-1.163 3.635-3.555 5.02z" fill="url(#g)"/><path d="M595.074 483.918c4.836 2.79 4.859 7.32.052 10.112L383.843 616.767c-4.8 2.791-12.59 2.791-17.455 0L3.888 407.558c-4.836-2.79-4.866-7.314-.06-10.105l211.284-122.737c4.806-2.79 12.59-2.798 17.455 0l362.507 209.202z" fill="url(#h)"/><path d="M302.329 117.163l-42.887-24.747a5.796 5.796 0 0 1-2.414-4.62c0-1.783 1.081-2.598 2.414-1.828l42.887 24.747a5.788 5.788 0 0 1 2.414 4.62c0 1.776-1.11 2.598-2.414 1.828z" fill="url(#i)"/><path d="M356.212 145.027a5.796 5.796 0 0 0-2.414-4.62l-24.609-14.198c-1.333-.74-2.422.045-2.422 1.829a5.803 5.803 0 0 0 2.422 4.62l24.609 14.198c1.318.777 2.414-.045 2.414-1.829z" fill="url(#j)"/><ellipse fill="url(#k)" transform="rotate(-30.31 315.751 121.691)" cx="315.751" cy="121.691" rx="2.288" ry="3.961"/><ellipse fill="url(#l)" transform="rotate(-30.31 367.202 151.385)" cx="367.202" cy="151.385" rx="2.288" ry="3.961"/><path d="M431.18 188.304a5.796 5.796 0 0 0-2.414-4.62l-42.88-24.747c-1.34-.74-2.42.044-2.42 1.828a5.773 5.773 0 0 0 2.42 4.62l42.902 24.747c1.31.77 2.392-.044 2.392-1.828z" fill="url(#m)"/><path d="M482.642 218.003a5.818 5.818 0 0 0-2.422-4.626l-24.609-14.199c-1.333-.74-2.422.045-2.422 1.829a5.796 5.796 0 0 0 2.422 4.62l24.609 14.235c1.333.74 2.422-.082 2.422-1.859z" fill="url(#n)"/><ellipse fill="url(#o)" transform="rotate(-30.31 442.187 194.662)" cx="442.187" cy="194.662" rx="2.288" ry="3.961"/><ellipse fill="url(#p)" transform="rotate(-30.31 493.648 224.358)" cx="493.648" cy="224.358" rx="2.288" ry="3.961"/><path d="M559.594 262.413a5.796 5.796 0 0 0-2.414-4.62l-42.887-24.747c-1.333-.74-2.414.052-2.414 1.828a5.788 5.788 0 0 0 2.414 4.62l42.887 24.784c1.333.74 2.414-.081 2.414-1.865z" fill="url(#q)"/><path d="M321.717 159.685a5.796 5.796 0 0 0 2.414 4.619l42.886 24.747c1.333.74 2.414-.051 2.414-1.828a5.788 5.788 0 0 0-2.414-4.62l-42.886-24.747c-1.333-.77-2.414.045-2.414 1.829z" fill="url(#r)"/><path d="M270.262 129.985a5.788 5.788 0 0 0 2.414 4.62l24.61 14.19c1.34.74 2.421-.052 2.421-1.828a5.773 5.773 0 0 0-2.422-4.62l-24.609-14.19c-1.333-.77-2.414.051-2.414 1.828z" fill="url(#s)"/><ellipse fill="url(#t)" transform="rotate(-30.31 310.711 153.336)" cx="310.711" cy="153.336" rx="2.288" ry="3.961"/><ellipse fill="url(#u)" transform="rotate(-30.31 259.256 123.636)" cx="259.256" cy="123.636" rx="2.288" ry="3.961"/><path d="M448.154 232.654a5.78 5.78 0 0 0 2.421 4.619l42.879 24.784c1.333.74 2.414-.044 2.414-1.828a5.788 5.788 0 0 0-2.414-4.62l-42.879-24.747c-1.34-.807-2.421.007-2.421 1.792z" fill="url(#v)"/><path d="M396.699 202.954a5.788 5.788 0 0 0 2.414 4.619l24.61 14.206c1.34.74 2.42-.052 2.42-1.829a5.773 5.773 0 0 0-2.42-4.619l-24.61-14.206c-1.333-.77-2.414.052-2.414 1.829z" fill="url(#w)"/><ellipse fill="url(#x)" transform="rotate(-30.31 437.147 226.307)" cx="437.147" cy="226.307" rx="2.288" ry="3.961"/><ellipse fill="url(#y)" transform="rotate(-30.31 385.692 196.607)" cx="385.692" cy="196.607" rx="2.288" ry="3.961"/><path d="M525.69 277.403a5.803 5.803 0 0 0 2.422 4.62l24.61 14.198c1.332.777 2.414-.045 2.414-1.821a5.81 5.81 0 0 0-2.415-4.627l-24.609-14.198c-1.333-.77-2.421.044-2.421 1.828z" fill="url(#z)"/><ellipse fill="url(#A)" transform="rotate(-30.174 511.121 273.423)" cx="511.121" cy="273.423" rx="2.276" ry="3.94"/><path d="M304.047 184.04a5.796 5.796 0 0 0-2.414-4.62l-42.887-24.747c-1.333-.74-2.414.044-2.414 1.828a5.796 5.796 0 0 0 2.414 4.62l42.887 24.747c1.333.77 2.414-.06 2.414-1.828z" fill="url(#B)"/><path d="M355.472 213.74a5.81 5.81 0 0 0-2.415-4.627l-24.579-14.199c-1.333-.74-2.422.045-2.422 1.829a5.803 5.803 0 0 0 2.422 4.62l24.61 14.205c1.332.77 2.384-.052 2.384-1.829z" fill="url(#C)"/><ellipse fill="url(#D)" transform="rotate(-30.31 315.053 190.402)" cx="315.053" cy="190.402" rx="2.288" ry="3.961"/><ellipse fill="url(#E)" transform="rotate(-30.31 366.504 220.096)" cx="366.504" cy="220.096" rx="2.288" ry="3.961"/><path d="M430.484 257.009a5.796 5.796 0 0 0-2.415-4.62l-42.878-24.747c-1.34-.74-2.422.052-2.422 1.828a5.773 5.773 0 0 0 2.422 4.62l42.856 24.747c1.355.77 2.437-.044 2.437-1.828z" fill="url(#F)"/><path d="M481.946 286.708a5.796 5.796 0 0 0-2.422-4.619l-24.61-14.206c-1.332-.74-2.42.052-2.42 1.829a5.796 5.796 0 0 0 2.42 4.619l24.61 14.206c1.333.77 2.422-.052 2.422-1.829z" fill="url(#G)"/><ellipse fill="url(#H)" transform="rotate(-30.31 441.489 263.373)" cx="441.489" cy="263.373" rx="2.288" ry="3.961"/><ellipse fill="url(#I)" transform="rotate(-30.31 492.95 293.07)" cx="492.95" cy="293.069" rx="2.288" ry="3.961"/><path d="M558.898 331.117a5.796 5.796 0 0 0-2.414-4.619l-42.887-24.747c-1.333-.74-2.414.052-2.414 1.828a5.788 5.788 0 0 0 2.414 4.62l42.887 24.747c1.333.77 2.414-.045 2.414-1.829z" fill="url(#J)"/><path d="M321.02 229.581a5.796 5.796 0 0 0 2.415 4.62l42.886 24.747c1.333.74 2.414-.044 2.414-1.828a5.788 5.788 0 0 0-2.414-4.62l-42.886-24.747c-1.333-.77-2.414.044-2.414 1.828z" fill="url(#K)"/><path d="M269.566 199.874a5.788 5.788 0 0 0 2.414 4.62l24.61 14.205c1.34.74 2.42-.044 2.42-1.828a5.773 5.773 0 0 0-2.42-4.62l-24.61-14.205c-1.333-.763-2.414.059-2.414 1.828z" fill="url(#L)"/><ellipse fill="url(#M)" transform="rotate(-30.31 310.015 223.232)" cx="310.015" cy="223.232" rx="2.288" ry="3.961"/><ellipse fill="url(#N)" transform="rotate(-30.31 258.56 193.531)" cx="258.56" cy="193.531" rx="2.288" ry="3.961"/><path d="M396.003 272.85a5.81 5.81 0 0 0 2.414 4.627l24.61 14.191c1.34.74 2.42-.044 2.42-1.828a5.78 5.78 0 0 0-2.42-4.62l-24.602-14.19c-1.34-.778-2.422.044-2.422 1.82z" fill="url(#O)"/><ellipse fill="url(#P)" transform="rotate(-30.31 436.451 296.21)" cx="436.451" cy="296.21" rx="2.288" ry="3.961"/><ellipse fill="url(#Q)" transform="rotate(-30.174 381.883 268.286)" cx="381.883" cy="268.286" rx="2.276" ry="3.94"/><path fill="url(#g)" d="M180.972 294.548l380.022 219.314 8.657-5.034-380.014-219.314zm-47.078 27.346l380.014 219.32 8.665-5.033-380.014-219.314z"/></g><path d="M183.612 100.708L10.376.924C8.894.081 7.59 0 6.671.554l-4.447 2.59c.956-.555 2.275-.474 3.742.37l173.243 99.82a11.552 11.552 0 0 1 5.248 9.065l-.312 110.587c0 1.656-.593 2.825-1.541 3.372l4.447-2.588c.941-.547 1.527-1.716 1.534-3.372l.311-110.587a11.515 11.515 0 0 0-5.284-9.102z" fill="url(#R)" transform="translate(572 22)"/><path d="M179.15 103.296a11.552 11.552 0 0 1 5.247 9.065l-.311 110.587c0 3.335-2.38 4.68-5.285 3.002L5.56 126.166a11.515 11.515 0 0 1-5.248-9.065L.623 6.514c0-3.327 2.371-4.68 5.284-3.002l173.243 99.784z" fill="url(#h)" transform="translate(572 22)"/><path d="M167.958 173.91c-7.775-4.473-11.659-18.411-15.41-31.89-3.705-13.2-7.47-26.842-14.823-31.056-7.352-4.215-11.117 5.05-14.823 14.049-3.758 9.154-7.634 18.618-15.41 14.137-7.774-4.48-11.65-18.411-15.4-31.89-3.707-13.2-7.48-26.841-14.824-31.056-7.345-4.215-11.118 5.043-14.824 14.012-3.758 9.154-7.634 18.618-15.409 14.145-7.775-4.474-11.651-18.412-15.402-31.891-3.705-13.199-7.478-26.848-14.823-31.055v-.74c7.775 4.437 11.659 18.412 15.409 31.891 3.669 13.199 7.471 26.84 14.823 31.055 7.353 4.215 11.118-5.042 14.824-14.011 3.75-9.154 7.627-18.619 15.402-14.145 7.775 4.473 11.65 18.411 15.409 31.89 3.706 13.199 7.47 26.849 14.823 31.056 7.353 4.207 11.118-5.05 14.824-14.012 3.75-9.154 7.626-18.626 15.401-14.145 7.775 4.48 11.66 18.411 15.41 31.89 3.705 13.2 7.478 26.849 14.823 31.056v.71z" fill="url(#R)" transform="translate(572 22)"/><path d="M167.958 175.692c-5.618-3.231-8.398-13.176-11.118-22.789-2.609-9.338-5.314-18.988-10.487-21.968-5.174-2.98-7.879 3.557-10.495 9.886-2.69 6.515-5.47 13.243-11.118 10.012-5.648-3.231-8.398-13.176-11.118-22.789-2.616-9.339-5.314-18.988-10.487-21.975-5.174-2.987-7.879 3.564-10.495 9.893-2.69 6.514-5.47 13.25-11.118 10.012-5.648-3.239-8.398-13.176-11.118-22.789-2.616-9.339-5.314-18.988-10.487-21.968-5.174-2.98-7.879 3.557-10.495 9.886-2.69 6.514-5.47 13.25-11.118 10.012-5.648-3.239-8.398-13.177-11.118-22.789-2.609-9.331-5.314-18.988-10.487-21.968v-.74c5.618 3.232 8.397 13.17 11.117 22.79 2.617 9.33 5.315 18.988 10.488 21.967 5.173 2.98 7.879-3.564 10.495-9.886 2.69-6.514 5.47-13.25 11.118-10.019 5.647 3.232 8.397 13.177 11.117 22.79 2.61 9.338 5.315 18.995 10.488 21.974 5.173 2.98 7.879-3.563 10.495-9.893 2.69-6.507 5.47-13.243 11.118-10.012 5.647 3.232 8.397 13.177 11.117 22.79 2.617 9.338 5.315 18.995 10.488 21.975 5.173 2.98 7.879-3.564 10.495-9.894 2.69-6.507 5.47-13.243 11.118-10.011 5.647 3.23 8.397 13.176 11.117 22.788 2.617 9.34 5.322 18.996 10.495 21.976l-.007.74z" fill="url(#S)" transform="translate(572 22)"/><g transform="translate(309 4)"><path d="M72.383 324.515l-4.451-2.569c2.923 1.695 4.637 5.323 4.644 10.202l4.452 2.568c-.008-4.878-1.714-8.506-4.645-10.201z" fill="#EAF0FE"/><path fill="url(#T)" d="M.638.244l.074 27.621 4.43 2.57L5.06 2.812z" transform="translate(56.387 292.422)"/><path d="M5.06 2.806L23 14.599c5.81 3.813 9.052 11.356 9.081 21.106l-11.44 6.589c0-6.544-3.08-10.83-8.043-11.238l-7.464-.622L5.06 2.806z" fill="url(#U)" transform="translate(56.387 292.422)"/><path d="M16.664 32.352l4.451-2.57c-2.923 1.696-4.637 5.324-4.651 10.202l-4.452 2.569c.022-4.879 1.729-8.499 4.652-10.201z" fill="url(#V)" transform="translate(6.677 299.085)"/><path fill="url(#W)" d="M32.03.503l-.075 27.621-4.43 2.57.075-27.622z" transform="translate(6.677 299.085)"/><path d="M27.607 3.072L9.645 14.858C3.835 18.671.594 26.214.564 35.964l11.44 6.589c0-6.544 3.08-10.83 8.036-11.238l7.471-.622.096-27.62z" fill="url(#X)" transform="translate(6.677 299.085)"/><path d="M68.355 70.255a118.276 118.276 0 0 0-23-70.085 118.276 118.276 0 0 0-23 70.085v278.942c.037 3.383 2.3 6.759 6.788 9.343 9.007 5.182 23.579 5.219 32.534.059 4.496-2.591 6.722-5.99 6.678-9.402V70.255z" fill="url(#Y)"/><path d="M29.136 50.43c9.007 5.182 23.579 5.182 32.534.06a16.553 16.553 0 0 0 4.362-3.532A118.388 118.388 0 0 0 45.34.17a118.41 118.41 0 0 0-20.663 46.64 16.798 16.798 0 0 0 4.459 3.62z" fill="url(#Z)"/><path d="M62.323 259.109c-9.334 5.374-24.484 5.345-33.9-.06-2.967-1.717-5.015-3.775-6.106-5.922v16.427c.038 3.376 2.3 6.76 6.79 9.343 9.006 5.182 23.578 5.22 32.533.06 4.496-2.592 6.722-5.997 6.677-9.403v-16.28a14.727 14.727 0 0 1-5.994 5.835zm0-38.275c-9.334 5.375-24.484 5.346-33.9-.059-2.967-1.717-5.015-3.775-6.106-5.922v16.427c.038 3.376 2.3 6.752 6.79 9.343 9.006 5.182 23.578 5.182 32.533.052 4.496-2.584 6.722-5.99 6.677-9.395V215a14.727 14.727 0 0 1-5.994 5.834z" fill="url(#d)" opacity=".2"/><path d="M81.68 344.533l-19.357-35.194-4.808 2.79 19.357 35.187c6.262 11.394 9.727 23.609 9.697 34.203l4.808-2.791c.03-10.594-3.428-22.81-9.697-34.195z" fill="#EAF0FE"/><path d="M.386 3.42l19.357 35.187c6.262 11.394 9.727 23.609 9.697 34.202l-12.42-7.158c0-7.107-3.28-15.584-8.644-22.21L.296 33.425.387 3.42z" fill="url(#aa)" transform="translate(57.129 308.71)"/><path d="M10.15 339.314l19.357-35.187 4.808 2.79-19.358 35.188c-6.262 11.386-9.726 23.6-9.697 34.195l-4.807-2.791c-.03-10.594 3.427-22.81 9.697-34.195z" fill="#EAF0FE"/><path d="M34.315 3.39L14.957 38.579c-6.262 11.386-9.726 23.6-9.697 34.194l12.42-7.158c0-7.1 3.28-15.547 8.636-22.21l8.088-10.001-.09-30.012z" fill="url(#ab)" transform="translate(0 303.527)"/><ellipse fill="url(#ac)" cx="46.096" cy="109.558" rx="12.116" ry="12.089"/><ellipse fill="url(#d)" cx="46.096" cy="109.558" rx="8.569" ry="8.551"/></g><g transform="translate(206 47)"><path d="M19.261 366.094c-2.122 1.228-2.137 3.226 0 4.44l55.315 32.275a8.384 8.384 0 0 0 7.663 0l55.676-32.276c2.122-1.228 2.13-3.226 0-4.44L82.6 333.812a8.428 8.428 0 0 0-7.663 0L19.26 366.094z" fill="url(#g)" opacity=".2"/><path d="M.184 333.063a1.189 1.189 0 0 0 0 .17.78.78 0 0 0 .037.141c.008.056.023.11.044.163l.052.133.08.17.075.119c.036.066.08.125.125.192l.147.177v.045c.07.08.147.153.229.222l.162.14c.051.037.096.082.154.119l.192.133.206.133 55.315 32.276c.165.095.335.181.509.259l.154.066.428.163.154.052.28.081.214.06.295.066.206.037.62.089h2.371l.287-.052.228-.044.332-.082.192-.051c.191-.06.39-.126.574-.2l.273-.111.14-.067c.137-.06.27-.13.398-.207l55.676-32.276a2.905 2.905 0 0 0 1.577-1.938 2.229 2.229 0 0 0 0-.311l.073 25.897a2.715 2.715 0 0 1-1.599 2.22L64.71 393.323c-.125.074-.257.14-.397.207l-.14.06-.244.11c-.184.074-.383.14-.582.2h-.184l-.331.081h-.229l-.287.052h-2.373c-.214 0-.413-.052-.619-.089h-.177l-.294-.059-.214-.059-.28-.081h-.155l-.427-.163-.155-.067a5.466 5.466 0 0 1-.508-.259L1.82 361.084l-.066-.044-.14-.089-.192-.133c-.059-.037-.103-.082-.155-.119l-.17-.14-.198-.192v-.045l-.11-.126-.037-.051c-.045-.067-.089-.126-.126-.193l-.051-.081c0-.06-.052-.119-.081-.17l-.045-.104a1.388 1.388 0 0 1-.051-.163v-.11a1.345 1.345 0 0 1 0-.171.572.572 0 0 0 0-.11v-.179l-.074-25.897c-.155 0-.14.044-.14.096z" fill="url(#ad)"/><path d="M1.768 330.658c-2.122 1.236-2.13 3.227 0 4.44l55.315 32.276a8.413 8.413 0 0 0 7.656 0l55.676-32.276c2.122-1.236 2.137-3.226 0-4.44L65.1 298.375a8.428 8.428 0 0 0-7.663 0L1.768 330.658z" fill="url(#d)"/><path d="M10.736 323.718v.259c0 .037 0 .089.037.133l.051.111c.016.05.039.097.067.14l.058.097c.03.057.065.111.104.163l.118.148c.058.066.125.125.191.192l.133.111.125.096.162.111.17.111 45.735 26.69c.133.073.28.147.428.214l.125.052c.114.053.233.097.354.133.04.02.082.034.125.044.074 0 .155.045.228.067l.177.052.25.051h.17l.509.067h1.967l.236-.044.184-.037.28-.067.155-.044a5.21 5.21 0 0 0 .479-.163l.228-.096.11-.052c.119-.052.222-.111.332-.17l46.03-26.69a2.425 2.425 0 0 0 1.305-1.605 1.486 1.486 0 0 0 0-.252l.059 7.918a2.264 2.264 0 0 1-1.32 1.857l-46.037 26.689a3.502 3.502 0 0 1-.332.178l-.11.044a1.735 1.735 0 0 1-.206.089c-.156.065-.316.12-.48.163h-.154c-.088 0-.184.051-.28.066h-.184l-.236.044h-1.503c-.1.008-.202.008-.302 0h-.162l-.509-.073h-.147l-.243-.052-.177-.045-.236-.066h-.125l-.354-.133-.125-.06a3.73 3.73 0 0 1-.42-.214l-45.684-26.608h-.06l-.11-.081a1.208 1.208 0 0 1-.162-.104l-.125-.104-.14-.11-.162-.163v-.037l-.089-.104a.156.156 0 0 0 0-.044l-.103-.156-.044-.066v-.037a.823.823 0 0 1-.066-.14.274.274 0 0 1-.037-.082l-.045-.14v-.09a1.1 1.1 0 0 1 0-.14v-.252l-.058-7.917c-.163.06-.155.104-.155.148z" fill="url(#ad)"/><path d="M12.047 321.735c-1.753 1.014-1.76 2.664 0 3.7l45.736 26.689a6.981 6.981 0 0 0 6.337 0l46.03-26.69c1.762-1.02 1.769-2.67 0-3.7l-45.735-26.688a6.923 6.923 0 0 0-6.33 0l-46.038 26.689z" fill="url(#d)"/><rect fill="url(#ae)" transform="rotate(-180 60.02 201.223)" x="57.651" y="55.495" width="4.738" height="291.457" rx="2.369"/><rect fill="url(#ae)" transform="rotate(-180 97.23 178.352)" x="94.861" y="31.07" width="4.738" height="294.565" rx="2.369"/><rect fill="url(#ae)" transform="rotate(-180 22.006 178.352)" x="19.637" y="31.07" width="4.738" height="294.565" rx="2.369"/><path d="M10.736 29.516v.251c0 .037 0 .096.037.14.036.045.036.075.051.104a.49.49 0 0 0 .067.141.74.74 0 0 0 .058.104c0 .051.067.103.104.155.035.052.074.102.118.148l.191.185.133.11.125.105.162.11.17.104 45.735 26.69c.138.08.281.151.428.214l.125.059.354.133.125.045.228.066.177.045.25.051h.17l.509.074h2.203l.184-.044c.096 0 .184-.044.28-.067l.155-.037.479-.162.228-.097.11-.051.332-.178 46.03-26.69a2.395 2.395 0 0 0 1.305-1.597 1.486 1.486 0 0 0 0-.252l.059 7.917a2.264 2.264 0 0 1-1.32 1.858l-45.94 26.703a3.48 3.48 0 0 1-.332.17l-.11.052-.207.09-.479.162h-.154l-.28.067h-.184l-.236.044h-1.017a.352.352 0 0 0-.089 0h-.906c-.17 0-.339-.044-.508-.074h-.148l-.243-.052-.177-.052-.235-.066h-.125l-.354-.133-.126-.052a5.579 5.579 0 0 1-.42-.215L12.092 39.105h-.06l-.11-.074-.162-.11-.125-.097-.14-.118-.162-.163-.089-.104a.156.156 0 0 0 0-.044l-.103-.163-.044-.067a1.208 1.208 0 0 1-.066-.14.4.4 0 0 1-.037-.082l-.045-.133v-.089a.802.802 0 0 1 0-.14v-.133l-.058-7.918c-.163-.103-.155-.059-.155-.014z" fill="url(#ad)"/><path d="M12.047 27.525c-1.753 1.021-1.76 2.671 0 3.7l45.736 26.69a6.937 6.937 0 0 0 6.337 0l46.03-26.69c1.762-1.014 1.769-2.664 0-3.7L64.416.836a6.967 6.967 0 0 0-6.33 0l-46.038 26.69z" fill="url(#d)"/><path fill="url(#ae)" d="M19.659 228.867l17.434-9.982-17.434-30.196 3.596-2.057 17.433 30.196 17.434-9.981 3.596 6.222-17.434 9.982 17.434 30.204-3.596 2.057-17.434-30.204-17.433 9.989zm0 60.133l17.434-9.981-17.434-30.204 3.596-2.057 17.433 30.204 17.434-9.982 3.596 6.223-17.434 9.982 17.434 30.204-3.596 2.057-17.434-30.204-17.433 9.981z"/><path fill="url(#ae)" d="M99.599 228.867l-17.434-9.982L99.6 188.69l-3.588-2.057-17.442 30.196-17.433-9.981-3.596 6.222 17.441 9.982-17.441 30.204 3.596 2.057 17.433-30.204 17.442 9.989zm0 60.133l-17.434-9.981L99.6 248.815l-3.588-2.057-17.442 30.204-17.433-9.982-3.596 6.223 17.441 9.982-17.441 30.204 3.596 2.057 17.433-30.204 17.442 9.981zm-79.94-180.179l17.434-9.982-17.434-30.196 3.596-2.057 17.433 30.196 17.434-9.981 3.596 6.223-17.434 9.981 17.434 30.204-3.596 2.057-17.434-30.204-17.433 9.99zm0 60.134l17.434-9.982-17.434-30.204 3.596-2.057 17.433 30.204 17.434-9.981 3.596 6.222-17.434 9.982 17.434 30.204-3.596 2.057-17.434-30.204-17.433 9.982z"/><path fill="url(#ae)" d="M99.599 108.821l-17.434-9.982L99.6 68.643l-3.588-2.057L78.57 96.782l-17.433-9.981-3.596 6.223 17.441 9.981L57.54 133.21l3.596 2.057 17.433-30.204 17.442 9.99zm0 60.134l-17.434-9.982L99.6 128.77l-3.588-2.057-17.442 30.204-17.433-9.981-3.596 6.222 17.441 9.982-17.441 30.204 3.596 2.057 17.433-30.204 17.442 9.982z"/></g><path d="M243.444 92.786c2.615 1.484 2.63 3.962 0 5.469l-74.097 43.106a10.361 10.361 0 0 1-9.432 0L2.223 50.185c-2.616-1.484-2.63-3.955 0-5.469L76.319 1.61a10.361 10.361 0 0 1 9.425 0l157.7 91.176z" opacity=".2" transform="translate(434 357.806)" fill="url(#af)"/><path d="M243.488 98.314l-74.096 43.099a10.361 10.361 0 0 1-9.433 0L2.26 50.236C.95 49.495.29 48.486.297 47.484v8.11c0 .993.66 1.988 1.971 2.752l157.692 91.176a10.361 10.361 0 0 0 9.433 0l74.096-43.106c1.29-.742 1.934-1.729 1.934-2.716v-8.102c0 .98-.645 1.967-1.934 2.716z" fill="url(#ag)" transform="translate(434 340)"/><path d="M243.458 92.846c2.609 1.484 2.624 3.954 0 5.468l-74.096 43.099a10.361 10.361 0 0 1-9.432 0L2.26 50.236c-2.608-1.483-2.623-3.954 0-5.468L76.356 1.662a10.361 10.361 0 0 1 9.425 0l157.677 91.184z" fill="url(#ah)" transform="translate(434 340)"/><path d="M123.328 101.548c1.731.996 1.739 2.623 0 3.626l-45.022 26.34a6.895 6.895 0 0 1-6.242 0l-45.34-26.303c-1.731-1.003-1.739-2.63 0-3.626l45.022-26.34a6.85 6.85 0 0 1 6.242 0l45.34 26.303z" fill="url(#ai)" transform="translate(0 304)"/><path d="M99.26 29.468a.828.828 0 0 1 0 .141.62.62 0 0 1 0 .112.903.903 0 0 1 0 .133l-.044.112c-.02.046-.041.09-.067.134a.744.744 0 0 1-.059.104l-.103.156c-.037.044-.074.096-.119.14v.038l-.192.178a.949.949 0 0 1-.133.12l-.126.096c-.044.037-.103.067-.155.104l-.17.111-45.045 26.296a4.32 4.32 0 0 1-.414.208l-.126.06-.347.125-.126.045c-.074 0-.155.045-.23.067l-.177.044-.244.052-.163.038c-.162 0-.332.052-.503.066h-2.012l-.229-.037h-.185l-.273-.074L47.87 58a4.5 4.5 0 0 1-.474-.164l-.221-.089-.119-.052-.325-.17L1.36 31.146a2.36 2.36 0 0 1-1.28-1.582 1.373 1.373 0 0 1 0-.246L0 88.68c.074.8.571 1.499 1.302 1.828l45.34 26.295.325.171.119.052.192.09c.155.06.313.112.473.155h.148l.274.067h.185l.23.037h1.9l.503-.074h.14l.245-.052.177-.052.23-.06h.125l.348-.133.126-.052c.141-.065.28-.136.414-.216L97.84 90.44h.052l.118-.082c.055-.03.107-.065.156-.104l.125-.096.134-.112a1.58 1.58 0 0 0 .155-.163l.089-.097v-.044c.037-.052.074-.104.103-.156l.045-.067.066-.142a.871.871 0 0 0 .037-.081.902.902 0 0 0 .037-.134v-.09a.821.821 0 0 0 0-.133v-.096l.06-59.36a.648.648 0 0 1 .243-.015z" fill="url(#aj)" transform="translate(0 304)"/><path d="M97.973 27.492c1.724 1.003 1.731 2.63 0 3.633L52.93 57.42a6.85 6.85 0 0 1-6.243 0L1.361 31.147c-1.73-1.003-1.738-2.63 0-3.633L46.413 1.219a6.836 6.836 0 0 1 6.235 0l45.325 26.273z" fill="url(#R)" transform="translate(0 304)"/><path d="M99.246 29.61a.62.62 0 0 1 0 .11.903.903 0 0 1 0 .134l-.045.112c-.019.046-.041.09-.066.134a.744.744 0 0 1-.06.104l-.103.156c-.037.044-.074.096-.118.14v.038l-.193.178a.949.949 0 0 1-.133.12l-.126.096c-.044.037-.103.067-.155.104l-.17.111-45.044 26.296a4.32 4.32 0 0 1-.415.208l-.125.06-.348.125-.126.045c-.074 0-.155.045-.23.067l-.177.044-.244.052-.162.038c-.163 0-.333.052-.503.066h-.947v59.36h.851l.502-.074h.141l.244-.052.178-.052.229-.06h.126l.347-.133.126-.052c.142-.065.28-.137.414-.216L97.96 90.574h.051l.119-.082c.054-.03.106-.065.155-.104l.126-.097.133-.111a1.58 1.58 0 0 0 .155-.164l.089-.096v-.045c.037-.052.074-.104.104-.156l.044-.067.066-.14a.871.871 0 0 0 .037-.083.902.902 0 0 0 .037-.133v-.09a.821.821 0 0 0 0-.133.515.515 0 0 1 0-.097l.06-59.36a.657.657 0 0 1 0 .127.824.824 0 0 1 .11-.134z" fill="url(#h)" transform="translate(0 304)"/><path d="M64.297 33.659c.858-.974 4.224-1.486 4.512-2.549.289-1.062-2.663-2.177-2.958-3.254-.296-1.078 1.915-2.63 1.05-3.611-.865-.981-4.312-.833-5.68-1.628-1.369-.795-1.184-2.808-2.811-3.299-1.627-.49-4.394.78-6.228.61-1.834-.171-3.75-1.88-5.607-1.71-1.856.172-2.714 2.118-4.415 2.586-1.701.469-4.89-.267-6.25.52-1.361.788-.067 2.683-.888 3.627-.82.943-4.23 1.486-4.512 2.548-.28 1.063 2.663 2.177 2.959 3.254.296 1.078-1.916 2.63-1.05 3.612.865.98 4.312.84 5.68 1.627 1.368.787 1.176 2.816 2.81 3.299 1.635.483 4.394-.78 6.229-.61 1.834.171 3.75 1.88 5.599 1.717 1.849-.164 2.714-2.118 4.438-2.616 1.723-.497 4.889.268 6.25-.52 1.36-.787.044-2.66.872-3.603zm-22.522.237c-4.386-2.548-4.438-6.687-.052-9.183 4.386-2.497 11.45-2.52 15.836 0 4.386 2.519 4.438 6.687.052 9.19-4.386 2.505-11.45 2.505-15.836-.007z" fill="url(#ak)" transform="translate(0 304)"/><path d="M46.524 64.91l.34.186.126.052.236.096c.162.066.328.123.496.171l.163.045.295.074.193.037.244.045h2.056l.54-.074h.17l.259-.06.185-.045.244-.074.133-.044.37-.142.133-.059c.152-.065.3-.14.444-.223l46.11-26.92v-8.648a.657.657 0 0 1 0 .126.828.828 0 0 1 0 .141.62.62 0 0 1 0 .112.903.903 0 0 1 0 .134l-.045.111c-.02.046-.041.09-.067.134a.744.744 0 0 1-.059.104l-.103.156c-.037.044-.074.096-.119.141v.037l-.192.178a.949.949 0 0 1-.133.12l-.126.096c-.044.037-.103.067-.155.104l-.17.111-45.045 26.296a4.32 4.32 0 0 1-.414.208l-.126.06-.347.126-.126.044c-.074 0-.155.045-.23.067l-.177.045-.244.052-.163.037c-.162 0-.332.052-.503.067h-2.012l-.229-.038h-.185l-.273-.074-.148-.037c-.16-.045-.319-.1-.474-.163l-.221-.09-.119-.052-.325-.17L1.36 31.146a2.36 2.36 0 0 1-1.28-1.582 1.373 1.373 0 0 1 0-.246v8.642l46.444 26.95z" fill="url(#ad)" transform="translate(0 304)"/><path d="M46.524 109.03c.11.067.223.127.34.179l.126.052.236.104c.162.065.328.123.496.17l.163.045c.096 0 .192.052.295.067l.193.045.244.044h1.576c.105.008.211.008.317 0h.163c.181-.013.362-.038.54-.074h.17l.259-.06.185-.052.244-.066.133-.045.37-.141.133-.06c.152-.065.3-.14.444-.223l46.11-26.92v-8.648a.746.746 0 0 1 0 .127.918.918 0 0 1 0 .14.62.62 0 0 1 0 .112.903.903 0 0 1 0 .134l-.045.111c-.02.046-.041.091-.067.134a.424.424 0 0 1-.059.097l-.103.156a1.158 1.158 0 0 1-.119.148v.037l-.192.179-.133.111-.126.104-.155.104-.17.104-45.045 26.303-.532.245-.126.052a3.33 3.33 0 0 1-.348.134l-.125.045-.23.067-.177.044-.244.052h-.163c-.163 0-.333.052-.503.067h-1.894l-.229-.045h-.185l-.273-.066h-.148a7.28 7.28 0 0 1-.474-.164l-.221-.097-.119-.044-.325-.171-45.37-26.4a2.375 2.375 0 0 1-1.28-1.582 1.396 1.396 0 0 1 0-.253v8.65l46.443 26.948z" fill="url(#R)" transform="translate(0 304)"/><path d="M82.526 70.766c1.172.678 1.18 1.782 0 2.459L51.874 91.014a4.669 4.669 0 0 1-4.237 0l-30.852-17.79c-1.171-.676-1.179-1.78 0-2.458l30.623-17.774a4.706 4.706 0 0 1 4.252 0l30.866 17.774z" fill="url(#al)" transform="translate(96 462)"/><path d="M70.243 20.888v.095a.316.316 0 0 1 0 .081.684.684 0 0 1 0 .096v.074a.61.61 0 0 1-.051.095v.074l-.074.103c-.025.036-.052.07-.081.103l-.133.125-.096.081-.088.066-.11.074-.118.08L37.63 40.533l-.295.147-.089.037-.25.095h-.089l-.162.044h-.118l-.176.045h-.118a2.73 2.73 0 0 1-.354.044h-1.665l-.192-.044h-.103c-.118 0-.228-.074-.339-.11l-.155-.067-.08-.037-.23-.118L.996 22.08a1.671 1.671 0 0 1-.907-1.111 1.426 1.426 0 0 1 0-.177v41.746c.044.567.399 1.063.921 1.288l32.068 18.496.228.117h.081l.14.06c.11.044.224.08.34.11h.073l.199.051h1.641l.361-.051h.273l.125-.037.155-.044h.059l.243-.096.088-.037.295-.147L69.24 63.752l.081-.051.11-.074a.936.936 0 0 0 .09-.073.508.508 0 0 0 .095-.081l.11-.11.06-.074.073-.11v-.045l.044-.103v-.051a.368.368 0 0 0 0-.096.14.14 0 0 0 0-.059v-.162l.044-41.753s.295-.052.295-.022z" fill="url(#aj)" transform="translate(96 462)"/><path d="M70.228 20.983a.316.316 0 0 1 0 .081.684.684 0 0 1 0 .096v.074a.61.61 0 0 1-.051.095v.074l-.074.103c-.025.036-.052.07-.08.103l-.134.125-.095.081-.089.066-.11.074-.118.08-31.861 18.497-.295.147-.088.037-.25.095h-.09l-.161.044h-.118l-.177.045h-.118a2.73 2.73 0 0 1-.354.044h-.707v41.753h.67l.354-.052h.273l.125-.036.155-.045h.059l.243-.095.088-.037.295-.147 31.861-18.496.081-.051.11-.074a.936.936 0 0 0 .09-.074.508.508 0 0 0 .095-.08l.11-.111.06-.074.073-.11v-.044l.044-.103v-.052a.368.368 0 0 0 0-.095.14.14 0 0 0 0-.06v-.162l.044-41.752v.095c0 .03.148-.088.14-.059z" fill="url(#h)" transform="translate(96 462)"/><path d="M37.579 60.05a2.02 2.02 0 0 1-.31.155l-.095.044-.25.096h-.097l-.17.051h-.132l-.177.037h-.103a2.95 2.95 0 0 1-.368.051H34.13l-.2-.051h-.088l-.346-.118-.148-.066h-.08l-.244-.125L.14 41.157v3.68c.047.566.4 1.06.921 1.288l32.067 18.496.229.118.08.036.14.06c.111.044.224.08.34.11h.074l.198.051h1.643l.362-.051h.398l.154-.045h.06l.242-.095.089-.037.295-.147 31.86-18.496.082-.051s.08-.052.11-.081l.089-.067.095-.08.11-.111.06-.074.074-.11v-.044l.044-.096v-.059a.478.478 0 0 0 0-.095.228.228 0 0 0 0-.06v-3.9L37.579 60.05z" fill="url(#R)" transform="translate(96 462)"/><path d="M69.33 19.511c1.223.736 1.23 1.848 0 2.554L37.467 40.561a4.905 4.905 0 0 1-4.42 0L.994 22.08c-1.223-.736-1.23-1.847 0-2.554L32.855 1.03a4.875 4.875 0 0 1 4.422 0l32.052 18.481z" fill="url(#R)" transform="translate(96 462)"/><path d="M25.937 16.25l1.304-.735a4.219 4.219 0 0 0 3.81 0c1.473-.824 3.065-2.208 4.627-3.091a5.399 5.399 0 0 1 5.467 0l1.076.618-1.474.832-.736-.435a2.574 2.574 0 0 0-2.8 0c-1.393.81-3.066 2.172-4.584 3.055a5.119 5.119 0 0 1-4.494.287h-.037c1.09.986.737 1.877-.523 2.598-1.518.883-3.89 1.84-5.284 2.65-.994.566-.884 1.081.045 1.611l.737.435-1.474.839-1.076-.619c-1.621-.934-1.835-2.112 0-3.15 1.555-.905 3.927-1.847 5.357-2.671.936-.56 1.186-1.281.059-2.223z" fill="url(#am)" transform="translate(96 462)"/><path d="M39.193 26.084c-1.43.824-3.066 2.208-4.628 3.091a5.399 5.399 0 0 1-5.467 0l-1.069-.618 1.474-.832.737.434a2.574 2.574 0 0 0 2.8 0c1.393-.81 3.065-2.17 4.59-3.054a5.163 5.163 0 0 1 4.51-.294c-1.113-.98-.737-1.87.501-2.591 1.525-.883 3.89-1.84 5.29-2.65.988-.566.877-1.082-.044-1.612l-.736-.434 1.473-.839 1.069.618c1.628.935 1.834 2.12.036 3.158-1.562.898-3.934 1.84-5.364 2.664-.92.53-1.171 1.251-.044 2.208l-1.304.736a4.219 4.219 0 0 0-3.824.015z" fill="url(#an)" transform="translate(96 462)"/><path d="M595.521 371.584c.004.052.004.103 0 .155v.126a1.029 1.029 0 0 1-.044.14l-.044.118a.917.917 0 0 1-.074.148l-.066.11a1.64 1.64 0 0 1-.11.17l-.126.155-.206.2a1.15 1.15 0 0 1-.147.118l-.133.11-.177.119-.176.11-49.036 28.587c-.14.08-.294.155-.449.228l-.14.06a4.44 4.44 0 0 1-.375.14l-.14.052-.243.066-.192.052-.265.059-.177.037-.545.074h-2.106l-.258-.045h-.199l-.294-.074-.162-.044a5.286 5.286 0 0 1-.516-.177 2.405 2.405 0 0 1-.243-.104l-.125-.051-.354-.185-49.344-28.541a2.59 2.59 0 0 1-1.392-1.721 1.622 1.622 0 0 1 0-.266l-.081 32.736c.08.87.62 1.628 1.414 1.987l49.308 28.541c.117.067.235.133.353.185l.125.059.214.088.515.17h.126l.294.074h.207l.25.044h2.106c.184 0 .361-.044.545-.08h.155l.265-.052.192-.052.25-.074h.132c.133-.044.258-.096.376-.148l.14-.059a3.07 3.07 0 0 0 .45-.229l48.99-28.541.06-.037.125-.081c.059-.035.115-.075.169-.119l.132-.103.148-.118.177-.17.095-.11v-.052c.044-.054.083-.11.118-.17l.044-.067v-.037l.074-.147a.452.452 0 0 0 0-.089c0-.052 0-.096.037-.148v-.096a1.125 1.125 0 0 0 0-.155v-.14l.066-32.84a.816.816 0 0 1 .287.104z" fill="#EAF0FE"/><path d="M108.521 53.834v-5.96a.822.822 0 0 1 0 .14c.004.052.004.104 0 .156v.125a1.029 1.029 0 0 1-.044.14l-.044.119a.917.917 0 0 1-.074.148l-.066.11a1.64 1.64 0 0 1-.11.17l-.126.155v.037l-.206.2a1.15 1.15 0 0 1-.147.118l-.133.11-.177.119-.176.11-49.036 28.55c-.14.08-.294.154-.449.228l-.14.06a4.44 4.44 0 0 1-.375.14l-.14.051-.243.067-.192.051-.265.06-.177.036-.545.074H53.55l-.258-.044h-.199l-.294-.074-.162-.044a5.286 5.286 0 0 1-.516-.177 2.405 2.405 0 0 1-.243-.104l-.125-.051-.354-.185L2.055 49.927a2.59 2.59 0 0 1-1.392-1.72 1.622 1.622 0 0 1 0-.266v5.945l50.59 29.287.367.192.133.059.25.103c.176.073.355.135.538.185l.177.044.309.082.206.044.265.044H55.7c.192 0 .383-.044.575-.081h.184l.28-.06.199-.05.258-.075.147-.051.39-.148.147-.06a5.69 5.69 0 0 0 .472-.243" fill="url(#ao)" transform="translate(487 340)"/><path d="M107.122 29.465c1.878 1.085 1.885 2.85 0 3.936L58.182 61.95a7.472 7.472 0 0 1-6.783 0L2.055 33.408c-1.878-1.093-1.886-2.858 0-3.943L51.039.923a7.443 7.443 0 0 1 6.79 0l49.293 28.542z" fill="url(#ak)" transform="translate(487 340)"/><path fill="#EAF0FE" d="M526.888 371.23l-3.27-1.89-.353-7.733 13.323.222 3.27 1.89-13.345-.236zm35.329-5.923l2.585 1.477-39.21 13.706-2.563-1.477zm-2.452 17.428l-.413-7.732 3.27 1.898.413 7.732-13.382-.222-3.27-1.898z"/><path d="M120.322 103.262c1.708.997 1.715 2.605 0 3.596l-44.505 26.055a6.769 6.769 0 0 1-6.166 0l-44.8-26.055c-1.708-.99-1.715-2.599 0-3.596l44.512-26.056a6.769 6.769 0 0 1 6.166 0l44.793 26.056z" fill="url(#ap)" transform="translate(320 539)"/><path d="M102.517 30.24v.14c.004.04.004.08 0 .12a.906.906 0 0 1-.037.134l-.044.112-.067.141a.746.746 0 0 0-.06.104c0 .052-.066.104-.11.157l-.118.156-.193.193-.14.112-.126.104-.162.112-.17.112-46.28 27.075-.428.216-.126.052-.355.142-.133.044-.229.067-.185.045-.251.052-.17.037-.51.075h-1.99l-.243-.038-.185-.044c-.096 0-.192-.045-.281-.067l-.155-.045a4.695 4.695 0 0 1-.488-.164l-.23-.096-.118-.053-.333-.17L2.02 31.988a2.46 2.46 0 0 1-1.324-1.63v-.254l-.067 61.12a2.292 2.292 0 0 0 1.339 1.883l46.582 27.075.332.171.119.052.2.09c.159.066.322.123.487.171h.156c.088 0 .184.052.28.067h.185l.244.037h1.945l.518-.074h.14l.251-.052.178-.045.236-.067h.126l.362-.141.126-.053.429-.215 46.286-27.068h.052l.118-.075.163-.112.126-.104.14-.111.163-.172.125-.17v-.053l.104-.156a.35.35 0 0 0 .044-.067l.067-.142.037-.082v-.223a.832.832 0 0 0 0-.141.375.375 0 0 0 0-.09v-.044l.059-61.12c.177-.044.17 0 .17.045z" fill="url(#h)" transform="translate(320 539)"/><path d="M55.033 87.576l-.45.231-.134.06-.377.141h-.133l-.244.075-.192.044-.26.06h-.155c-.177 0-.362.06-.54.074h-2.092l-.251-.044a.558.558 0 0 1-.118 0h-.082l-.296-.075h-.162c-.17-.052-.34-.104-.51-.171l-.237-.127-.126-.052a5.154 5.154 0 0 1-.347-.186L.562 59.846v5.412A2.285 2.285 0 0 0 1.9 67.141l46.582 27.076.333.179.118.052.2.089.488.164h.155l.281.067h.184l.245.044h2.011c.177 0 .347 0 .518-.067h.14l.251-.052.178-.052.236-.067h.126c.124-.037.245-.081.362-.134l.126-.052a4.69 4.69 0 0 0 .429-.223l46.279-27.076h.051l.104-.089.163-.112.125-.096.14-.12c.06-.052.112-.111.163-.163l.09-.105v-.044l.103-.157a.35.35 0 0 0 .044-.067l.067-.141a.403.403 0 0 1 .037-.082v-.231a.922.922 0 0 0 0-.141.517.517 0 0 0 0-.097v-5.472L55.033 87.576z" fill="url(#R)" transform="translate(320 539)"/><path d="M101.186 28.222c1.775 1.035 1.79 2.71 0 3.722L54.907 59.02a7.055 7.055 0 0 1-6.41 0L1.915 31.944c-1.782-1.035-1.79-2.71 0-3.722L48.186 1.146a7.07 7.07 0 0 1 6.418 0l46.582 27.076z" fill="url(#R)" transform="translate(320 539)"/><path d="M639.843 429.13v.176a.405.405 0 0 1 0 .089.723.723 0 0 1 0 .073l-.045.096-.045.073a.522.522 0 0 1-.074.103.56.56 0 0 1-.083.103l-.134.132-.097.074a.946.946 0 0 1-.09.073l-.112.074-.12.073-31.92 18.241-.291.147h-.09l-.247.096h-.09l-.164.044h-.12l-.171.037h-.12l-.358.051h-1.667l-.194-.044h-.105l-.336-.11-.157-.066h-.082a2.142 2.142 0 0 1-.225-.118l-32.211-18.234a1.66 1.66 0 0 1-.905-1.095.723.723 0 0 1 0-.176l-.044 20.99c.05.556.406 1.04.926 1.264l32.137 18.241.232.118h.075l.142.058c.106.045.216.082.328.11h.083l.194.052h1.667c.118-.007.235-.022.35-.044h.397l.157-.044h.052l.247-.088.09-.044c.101-.04.199-.09.291-.147l31.928-18.242h.037l.082-.051.112-.074.082-.066.098-.08.112-.11a.288.288 0 0 1 .06-.074l.074-.11v-.045l.045-.095v-.214a.383.383 0 0 0 0-.095.159.159 0 0 0 0-.059l.045-20.982s.254-.11.254-.081z" fill="#EAF0FE"/><path d="M70.843 34.344v-3.807.271a.405.405 0 0 1 0 .089v.073l-.045.096-.045.073-.074.103a.987.987 0 0 1-.083.103l-.134.132-.097.074-.09.066a.584.584 0 0 1-.112.074l-.12.08-31.92 18.242-.291.147-.09.036-.247.089h-.09l-.164.051h-.411l-.358.051h-1.667l-.194-.044h-.105l-.336-.11-.157-.066h-.082a2.142 2.142 0 0 1-.225-.118L1.57 31.81a1.66 1.66 0 0 1-.904-1.103.622.622 0 0 1 0-.17v3.8l32.967 18.72.239.124h.082l.164.066.352.118h.112l.202.051h1.749l.366-.051h.306l.127-.037.172-.044.097-.037.254-.095h.09c.108-.044.213-.096.314-.154" fill="url(#aq)" transform="translate(569 409)"/><path d="M69.931 18.77c1.218.735 1.226 1.823 0 2.521l-31.92 18.241a4.916 4.916 0 0 1-4.417 0l-32.1-18.219c-1.225-.735-1.232-1.822 0-2.52L33.423.55a4.916 4.916 0 0 1 4.417 0l32.092 18.22z" fill="url(#ar)" transform="translate(569 409)"/><path d="M331.696 519.472l-4.444 7.124s-16.422-21.892-18.919-23.38c-2.496-1.49-14.155 4.273-10.859 4.05 3.296-.222 2.163-.74 3.556-.74 1.392 0 1.481 3.644 3.333 3.503 1.852-.14 2.963-.2 2.963-.2s12.318 29.41 19.437 31.772c6.037 2 13.8-14.745 13.8-14.745l-8.867-7.384z" fill="#F7C19C"/><path d="M82.8 194.041s.252 5.925-.34 7.488c-.593 1.562-1.653 4.228-3.164 8.798-1.51 4.57-4.015 7.488-8.777 5.829-4.763-1.66 1-10.747 1.533-13.331.533-2.585 1.015-10.028 1.015-10.028l9.733 1.244z" fill="url(#as)" transform="translate(257 462)"/><path d="M56.733 183.035s1.83 6.933.482 7.918c-1.348.985-7.111 2.073-11.422 6.665-3.29 3.518-7.104 5.4-10.178 1.4-3.074-4 7.133-9.554 8.992-11.435 1.86-1.881 5.674-6.777 5.674-6.777l6.452 2.23z" fill="url(#at)" transform="translate(257 462)"/><path d="M122.17 92.066s5.926 20.04-6.481 30.298c-12.408 10.258-23.304 20.834-23.304 20.834L84 194.833l-12.407-1.14s1.044-52.924 1.481-56.657c.437-3.733 15.148-14.812 15.148-14.812s-18.933 13.212-19.57 15.441c-.637 2.23-10.933 47.052-10.933 47.052l-10.645-1.674s-.222-50.754 2.504-56.013c2.726-5.258 41.681-41.193 41.681-41.193l30.911 6.229z" fill="url(#au)" transform="translate(257 462)"/><path d="M85.06 64.982s.407 10.235-2.897 28.81c0 0 19.963 18.76 42.578 3.243l-4.445-31.187 4.311 6.25s8.334-.8 11.49-7.724l-10.371-21.137c-4.052-8.258-26.956-13.716-29.874-13.923a9.949 9.949 0 0 0-10 5.362c-2.77 4.97-14.63 23.884-14.63 23.884s3.741 7.784 12.134 9.065l1.703-2.643z" fill="url(#av)" transform="translate(257 462)"/><path d="M392.311 527.848a79.978 79.978 0 0 0 3.408 8.413c3.244 6.666-2.49 29.247-1.356 31.003 3.637 5.62 2.267 9.08 1.644 10.146-.622 1.066-.474-3.377-1.481-4.444 0 0 1.06 5.007 0 6.629-1.06 1.622-2.022-7.162-2.022-7.162s.489 6.466-.837 8.147-1.17-7.858-1.17-7.858-1.03 6.021-2.097 6.177c-1.067.155-.089-7.229-.533-7.844-.445-.614-2.282 3.074-3.793 2.622-1.511-.452 3.482-7.68 3.482-7.68l-.46-27.114-4.496-4.903a19.358 19.358 0 0 0 5.496-2.08 14.666 14.666 0 0 0 4.215-4.052zm-36.437-32.35s-.785 3.08 2.882 4.325c4.622 1.563 10.74-.585 8.214-6.488l-.8-3.932s2.49-4.007 2.223-10.732c-.267-6.725-12.83-13.094-16.49-7.095-3.659 6-1.533 21.478-.48 22.707 1.051 1.23 4.451 1.215 4.451 1.215z" fill="#F7C19C"/><path d="M106.548 16.353s-9.763.489-13.118-3.444l-.615 8.569s-2.496-4.081-2.008-7.673c0 0-5.637-5.243-2.91-10.88 2.725-5.636 9.422 0 9.422 0S111.504-.963 114.51 8.85c3.008 9.813-4.407 13.99-3.126 16.805 1.282 2.814-1.244 4.273-2.704 2.43-1.459-1.845 1.949-4.66 1.363-7.281-.585-2.622-3.496 3.2-4.666 3.2-1.17 0 1.17-7.651 1.17-7.651z" fill="url(#aw)" transform="translate(257 462)"/><path d="M4.674 63.915l83.407 48.14c2.223 1.281 4.015-.082 4.015-3.037V60.501c0-2.963-1.8-6.392-4.015-7.673L4.674 4.688C2.452 3.407.66 4.77.66 7.725v48.562c0 2.918 1.793 6.354 4.015 7.628z" fill="url(#ax)" opacity=".5" transform="translate(257 462)"/><g transform="translate(420 325)"><path d="M82.434 34.346s4.447-3.215 5.188-3.645c.741-.43 4.076.312 4.195.682.119.37.808.607 1.112 1.074.304.467 1.549 1.015 1.549 1.363 0 .349 1.17.875 1.112 1.934-.06 1.06-1.92-.193-3.462 0-1.541.193 1.542 1.245 1.238 2.356-.304 1.111-2.713-.556-3.276 0-.563.556-4.076 2.963-4.076 2.963l-3.58-6.727z" fill="#F7C19C"/><path d="M63.193 65.285c4.084-1.563 26.682-25.967 26.682-25.967-2.572-5.764-7.293-5.86-7.293-5.86l-21.39 16.298S42.418 34.57 39.045 32.983c-3.372-1.585 9.784 25.464 9.784 25.464s10.28 8.394 14.364 6.838z" fill="url(#ay)"/><ellipse fill="url(#g)" opacity=".3" cx="48.68" cy="199.722" rx="48.451" ry="22.952"/><path d="M27.112 189.283a38.918 38.918 0 0 0-3.365 4.727 5.036 5.036 0 0 0 1.683 7.068c2.327 1.26 4.543 1.874 7.286.622 2.742-1.252 5.062-5.09 9.079-6.023 4.017-.934 8.56-5.771 3.854-9.053-3.172-2.216-18.537 2.66-18.537 2.66z" fill="url(#az)"/><path d="M62.185 196.788l-1.69 7.364s-6.804.37-8.457-2.844l2.18-10.165 7.967-50.379-7.145-26.093-20.887 79.672s-2.779 1.608-5.38.675c-.549-.2-.267-1.741-.823-2.156-1.127-.838-1.638.244-2.009-.43l23.718-84.207 15.46 3.705 6.53 34.717-9.464 50.141z" fill="#EFAD81"/><path d="M49.125 32.657l1.067-6.475S48.673 9.883 53.098 8.275c4.425-1.607 14.142-.237 14.223 7.698.082 8.046-.111 14.884-3.58 14.736-3.469-.148-4.099-.741-4.099-.741l.097 6.275-10.614-3.586z" fill="#F7C19C"/><path d="M35.74 92.934l1.482 44.081-11.266 48.897s2.564 4.283 14 3.156c0 0 12.653-43.807 13.876-45.666 1.223-1.86 3.424-16.759 3.424-16.759s1.912 22.967 1.32 25.42c-.594 2.452-6.523 43.94-6.523 43.94s2.401 5.705 13.163 4.045c0 0 11.585-47.838 11.585-52.32V99.772L35.74 92.934z" fill="url(#aA)"/><path d="M61.518 201.611s-5.515.29-6.582-.43c-1.067-.718-1.327-2.281-2.224-2.348-.896-.067-4.536 5.645-4.536 9.698 0 2.6 3.217 5.186 10.377 4.312 8.25-.978 7.471.74 14.683-.741 7.211-1.482 4.743-5.86.54-6.29-4.202-.43-8.256-1.141-9.775-2.282-1.52-1.14-2.483-1.919-2.483-1.919z" fill="url(#aB)"/><path d="M124.518 58.128s1.37-.956.837-1.733c-.533-.778-1.92-.326-1.92-.326.875-1.275 1.046-2.482-1.17-1.875-.497.134-1.32.378-2.224.645a10.778 10.778 0 0 0-1.482-.83c-.905-.393-2.506 1.66-3.106 2.49l-3.758 1.985-.667 7.105c1.96.09 3.925.041 5.878-.149 1.749-.31 7.412-2.881 7.767-4.134.356-1.252-.815-.852-.815-.852s1.482-.74 1.482-1.644a.637.637 0 0 0-.822-.682z" fill="#F7C19C"/><path d="M81.33 79.665c4.365.156 34.65-13.565 34.65-13.565-.127-6.305-4.448-8.231-4.448-8.231L85.48 64.537S74.118 43.28 71.62 40.51c-2.498-2.77-11.466-7.408-11.466-7.408s-7.782 2.504-11.2-3.882c0 0-10.59.889-11.688 1.311-1.097.422-6.41 7.786-2.564 24.99 3.847 17.202-2.224 37.71-2.224 37.71s17.084 17.713 46.131 8.942L70.73 67.767s6.234 11.75 10.6 11.898z" fill="url(#aC)"/><path d="M63.126 16.818s7.916 1.185 7.745-4.15c-.17-5.333-3.617-2.74-4.543-7.267-1.112-5.43-9.11-7.283-15.565-1.037-4.795 4.675-7.62 7.186-15.616 5.69C15.876 6.438-5.522 24.323 11.985 46.4c17.506 22.078 41.417 8.15 41.38-4.556-.037-12.706 6.048-16.121 10.228-16.744 4.18-.622-.467-8.282-.467-8.282z" fill="url(#aD)"/></g><path d="M235.844 214.44s-3.133-5.832-4.392-5.862c-1.26-.03 1.392 4.89 1.392 4.89s-3.096-5.15-4.214-5.528c-1.119-.378 2.037 7.382 2.037 7.382s-3.237-4.088-4.163-4.2c-.926-.11 2.91 6.003 2.91 6.003s-2.48-2.003-3.747-1.825c-1.267.178 5.185 5.735 6.792 6.744l4.267 2.664 2.711-5.713s-1.756-6.396-2.815-6.863c-1.059-.467-.778 2.307-.778 2.307z" fill="#F7C19C"/><path d="M47.007 198.416s2.608 6.944 2.052 10.87c-.555 3.924-5.363 4.34-8.148 3.39-2.785-.95-3.911-2.968-8.148-3.265-4.237-.296-12.03-1.009-12.978-4.392-.948-3.383 2.511-6.01 6.793-5.29 4.281.72 10.6-2.374 10.6-2.374l2.074 2.893s2.067-.14 7.755-1.832z" fill="url(#aE)" transform="translate(225 144)"/><path d="M91.548 209.159s5.837 4.57 7.408 8.206c1.57 3.635-2.326 6.5-5.186 7.145-2.859.645-4.881-.49-8.674 1.484-3.792 1.973-10.792 5.416-13.333 3.02-2.54-2.397-.985-6.433 3.052-8.058s7.822-7.59 7.822-7.59l3.282 1.395s1.651-1.187 5.63-5.602z" fill="url(#aF)" transform="translate(225 144)"/><path d="M84.896 112.685s2.363 57.263 2.726 59.355l7 41.17s-5.103 6.84-14.481 1.662l-10.6-40.398-3.704-37.431-10.904-17.844 29.963-6.514z" fill="url(#aG)" transform="translate(225 144)"/><path d="M304.393 155.3s-1.652-5.253-2.015-6.47c-.363-1.217-3.519-4.83-4.045-4.607-.526.222 1.304 2.967 1.304 2.967s-2.311-2.967-3.378-3.042c-1.066-.074 2.467 4.786 2.467 4.786s-.985-.89-2.045-1.803c-1.059-.913-3.059-2.07-3.362-1.706-.304.363 4.074 5.542 4.074 5.542s-2.57-3.458-3.6-3.153c-1.03.304 3.081 4.214 2.688 4.911-.392.698-2.355-.363-2.222.623.134.987 4.845 4.237 4.845 4.237l5.289-2.285zm-27.304 27.748a53.351 53.351 0 0 1-1.37 9.326c-1.09 4.303-1.941 11.723 7.237 11.545l-.178 2.775s1.289 2.047 4.681 1.758a5.55 5.55 0 0 0 4.548-3.368l-1.37-4.215s7.66-5.141 4.993-14.556c-2.667-9.416-14.919-8.533-18.541-3.265z" fill="#F7C19C"/><path d="M67.948 56.617a4.217 4.217 0 0 1-4.985.512c-2.904-1.558-3.66-3.517-1.096-5.557 2.563-2.04 2.03-4.556-.297-4.029-2.326.527-4.533 3.576-3.933 8.102.6 4.526.319 4.303.319 4.303s-1.66 1.803-5.29.468c-3.629-1.336-3.585-7.85-3.007-8.762.578-.913 1.622 1.268 6.111-.987 4.49-2.256 3.29-10.29-1.133-9.816-4.422.475-6.281-7.123-.985-9.245 5.296-2.121 16.83-1.12 18.704 8.555 1.874 9.675-4.408 16.456-4.408 16.456z" fill="url(#aH)" transform="translate(225 144)"/><path d="M49.556 116.558s-31.852 23.163-32.17 27.088c-.993 11.263 18.392 54.903 18.392 54.903s5.296 4.823 12.348 0c0 0-14.593-45.005-13.756-46.237.837-1.232 41.245-8.466 50.526-35.784l-35.34.03z" fill="url(#aI)" transform="translate(225 144)"/><path d="M61.193 60s-14.03 8.66-16.883 12.324C41.46 75.989 36.06 88.2 36.06 88.2L15.622 71.545S8.548 73.029 9.23 80.73c0 0 22.963 24.751 28.496 24.632 4.985-.111 9.215-10.602 9.215-10.602l-2.326 23.742s30.644 6.462 42.326-5.246l-1.756-44.798s8.89-15.58 8.667-20.032c-.222-4.451-13.556-37.512-13.556-37.512s-4.777-.327-7.91 3.39c0 0 10.577 28.394 9.466 31.48-1.111 3.087-8.215 12.985-8.215 12.985S67.23 59.125 61.193 60z" fill="url(#aJ)" transform="translate(225 144)"/></g></svg>