<svg width="61" height="61" xmlns="http://www.w3.org/2000/svg"><g stroke="#3399D4" stroke-width="2" fill="none" fill-rule="evenodd"><path d="M34.233 45H5.383C2.96 45 1 42.972 1 40.472V5.53C1 3.028 2.96 1 5.383 1H54.68c2.422 0 4.384 2.028 4.384 4.53v13.818M1 37h32.888m-11.61 16v-8"/><path d="M16.484 53h17.413" stroke-linecap="round"/><path d="M54.684 59.011h-10.59c-2.42 0-4.383-2.028-4.383-4.53v-22.94c0-2.502 1.963-4.53 4.382-4.53h10.591c2.42 0 4.382 2.028 4.382 4.53v22.94c0 2.502-1.963 4.53-4.382 4.53z"/></g></svg>