<svg width="134" height="28" viewBox="0 0 134 28" fill="none" xmlns="http://www.w3.org/2000/svg">
<g clip-path="url(#clip0_1453_7381)">
<path d="M27.0879 6.40482C27.098 6.44202 27.1031 6.48037 27.1032 6.5189V12.5079C27.1032 12.5847 27.0829 12.6603 27.0444 12.7268C27.0059 12.7933 26.9505 12.8484 26.8838 12.8867L21.8571 15.7807V21.517C21.8571 21.6731 21.7742 21.8172 21.6388 21.8958L11.1461 27.9361C11.1221 27.9497 11.0959 27.9585 11.0697 27.9678C11.0598 27.971 11.0506 27.977 11.0402 27.9798C10.9668 27.9991 10.8897 27.9991 10.8164 27.9798C10.8044 27.9765 10.7935 27.9699 10.782 27.9656C10.758 27.9568 10.7329 27.9492 10.71 27.9361L0.219428 21.8958C0.152785 21.8575 0.0974113 21.8023 0.0588879 21.7358C0.0203645 21.6693 5.28044e-05 21.5939 0 21.517L0 3.55007C0 3.51077 0.00545842 3.47256 0.0152836 3.43544C0.0185586 3.42288 0.0262004 3.41142 0.0305671 3.39887C0.0387548 3.37594 0.0463966 3.35247 0.0584051 3.33118C0.0665927 3.31699 0.0786012 3.30553 0.0884264 3.29243C0.100981 3.27496 0.112443 3.25695 0.127181 3.24166C0.139736 3.22911 0.156111 3.21983 0.170303 3.20891C0.186132 3.19581 0.200324 3.18162 0.218337 3.17125L5.46442 0.151108C5.53084 0.112889 5.60613 0.0927734 5.68276 0.0927734C5.75939 0.0927734 5.83468 0.112889 5.9011 0.151108L11.1466 3.17125H11.1477C11.1652 3.18217 11.1799 3.19581 11.1958 3.20837C11.21 3.21929 11.2258 3.22911 11.2383 3.24112C11.2536 3.25695 11.2645 3.27496 11.2776 3.29243C11.2869 3.30553 11.2995 3.31699 11.3071 3.33118C11.3197 3.35302 11.3268 3.37594 11.3355 3.39887C11.3399 3.41142 11.3475 3.42288 11.3508 3.43598C11.3608 3.47318 11.366 3.51153 11.3661 3.55007V14.772L15.7372 12.2552V6.51835C15.7372 6.48014 15.7426 6.44139 15.7524 6.40482C15.7563 6.39172 15.7634 6.38026 15.7677 6.3677C15.7765 6.34478 15.7841 6.3213 15.7961 6.30002C15.8043 6.28582 15.8163 6.27436 15.8256 6.26126C15.8387 6.24379 15.8496 6.22578 15.8649 6.2105C15.8774 6.19794 15.8933 6.18866 15.9075 6.17775C15.9238 6.16465 15.938 6.15046 15.9555 6.14009L21.2021 3.11994C21.2685 3.08167 21.3438 3.06152 21.4205 3.06152C21.4971 3.06152 21.5724 3.08167 21.6388 3.11994L26.8843 6.14009C26.9029 6.151 26.9171 6.16465 26.9335 6.1772C26.9471 6.18812 26.9629 6.19794 26.9755 6.20995C26.9908 6.22578 27.0017 6.24379 27.0148 6.26126C27.0246 6.27436 27.0366 6.28582 27.0443 6.30002C27.0568 6.3213 27.0639 6.34478 27.0727 6.3677C27.0776 6.38026 27.0847 6.39172 27.0879 6.40482ZM26.2288 12.2552V7.27489L24.3931 8.33164L21.8571 9.79177V14.772L26.2293 12.2552H26.2288ZM20.9833 21.2643V16.2807L18.4888 17.7054L11.3655 21.7708V26.8013L20.9833 21.2643ZM0.874439 4.30606V21.2643L10.4911 26.8007V21.7714L5.46715 18.9281L5.46551 18.927L5.46333 18.9259C5.44641 18.9161 5.43222 18.9019 5.41639 18.8899C5.40274 18.8789 5.38691 18.8702 5.3749 18.8582L5.37381 18.8566C5.35962 18.8429 5.3498 18.826 5.33779 18.8107C5.32687 18.796 5.31377 18.7834 5.30504 18.7681L5.30449 18.7665C5.29467 18.7501 5.28866 18.7305 5.28157 18.7119C5.27447 18.6955 5.26519 18.6803 5.26082 18.6628C5.25536 18.642 5.25427 18.6197 5.25209 18.5984C5.24991 18.582 5.24554 18.5656 5.24554 18.5493V6.82293L2.7101 5.36226L0.874439 4.30606ZM5.6833 1.03428L1.31275 3.55007L5.68221 6.06585L10.0522 3.54952L5.68221 1.03428H5.6833ZM7.95619 16.7349L10.4916 15.2753V4.30606L8.65596 5.36281L6.11998 6.82293V17.7922L7.95619 16.7349ZM21.4205 4.00311L17.0505 6.5189L21.4205 9.03468L25.7899 6.51835L21.4205 4.00311ZM20.9833 9.79177L18.4473 8.33164L16.6116 7.27489V12.2552L19.147 13.7147L20.9833 14.772V9.79177ZM10.9278 21.0148L17.3376 17.3555L20.5417 15.5269L16.1749 13.0128L11.1472 15.9074L6.56484 18.5454L10.9278 21.0148Z" fill="#FF2D20"/>
</g>
<g clip-path="url(#clip1_1453_7381)">
<path fill-rule="evenodd" clip-rule="evenodd" d="M43.1003 2.75879V21.8313H50.0007V25.1218H39.4258V2.75879H43.1003ZM62.9706 12.2471V10.2344H66.4531V25.1227H62.9714V23.1091C62.5022 23.8548 61.8376 24.4407 60.9745 24.8661C60.1121 25.2923 59.244 25.505 58.3709 25.505C57.2412 25.505 56.2084 25.2981 55.2716 24.8827C54.3585 24.4845 53.5373 23.9025 52.8592 23.1729C52.1873 22.4471 51.6568 21.6023 51.295 20.6818C50.918 19.7255 50.7278 18.7057 50.7347 17.6777C50.7347 16.6349 50.921 15.6385 51.2942 14.6901C51.6537 13.7633 52.1846 12.9126 52.8592 12.1825C53.5375 11.4533 54.3587 10.8716 55.2716 10.4735C56.2084 10.0581 57.2412 9.8512 58.3709 9.8512C59.244 9.8512 60.1121 10.0639 60.9745 10.4901C61.8368 10.9163 62.5014 11.5014 62.9706 12.2471ZM62.6512 19.4992C62.8656 18.9163 62.9741 18.2997 62.9714 17.6785C62.9714 17.0388 62.8638 16.4322 62.6512 15.8578C62.4516 15.3048 62.1482 14.795 61.7574 14.3558C61.3673 13.925 60.8944 13.5771 60.367 13.3329C59.8241 13.078 59.2225 12.9497 58.5629 12.9497C57.9016 12.9497 57.305 13.078 56.7728 13.3329C56.252 13.58 55.7851 13.9277 55.399 14.3558C55.0095 14.7927 54.7112 15.3031 54.5218 15.857C54.3171 16.4421 54.2141 17.0579 54.2172 17.6777C54.2172 18.3166 54.3182 18.924 54.521 19.4984C54.7229 20.0744 55.0159 20.5742 55.3999 21.0004C55.7858 21.4287 56.2527 21.7764 56.7736 22.0233C57.305 22.2791 57.9016 22.4065 58.5621 22.4065C59.2225 22.4065 59.8241 22.2791 60.367 22.0233C60.8945 21.7793 61.3674 21.4314 61.7574 21.0004C62.1482 20.5615 62.4516 20.052 62.6512 19.4992ZM69.2007 25.1218V10.2344H78.6575V13.6614H72.6823V25.1235H69.2007V25.1218ZM91.2765 12.2471V10.2344H94.759V25.1227H91.2765V23.1091C90.8081 23.8548 90.1427 24.4407 89.2796 24.8661C88.4172 25.2923 87.5499 25.505 86.676 25.505C85.5472 25.505 84.5143 25.2981 83.5775 24.8827C82.6644 24.4845 81.8432 23.9025 81.1651 23.1729C80.4929 22.4472 79.9622 21.6023 79.6001 20.6818C79.2234 19.7254 79.0334 18.7056 79.0407 17.6777C79.0407 16.6349 79.2269 15.6385 79.6001 14.6901C79.9594 13.7634 80.49 12.9127 81.1643 12.1825C81.8428 11.4532 82.6643 10.8715 83.5775 10.4735C84.5143 10.0581 85.5472 9.8512 86.676 9.8512C87.5491 9.8512 88.4172 10.0639 89.2796 10.4901C90.1427 10.9163 90.8081 11.5014 91.2765 12.2471ZM90.9571 19.4992C91.1713 18.9162 91.2795 18.2996 91.2765 17.6785C91.2765 17.0388 91.169 16.4322 90.9571 15.8578C90.7575 15.3048 90.4541 14.795 90.0633 14.3558C89.6732 13.925 89.2003 13.5771 88.673 13.3329C88.1301 13.078 87.5276 12.9497 86.868 12.9497C86.2076 12.9497 85.6109 13.078 85.0788 13.3329C84.5579 13.58 84.0911 13.9277 83.705 14.3558C83.3151 14.7926 83.0166 15.3031 82.8269 15.857C82.6225 16.4421 82.5197 17.0579 82.5232 17.6777C82.5232 18.3166 82.6233 18.924 82.8269 19.4984C83.0288 20.0744 83.3218 20.5742 83.705 21.0004C84.0909 21.4287 84.5578 21.7764 85.0788 22.0233C85.6109 22.2791 86.2076 22.4065 86.868 22.4065C87.5276 22.4065 88.1301 22.2791 88.673 22.0233C89.2005 21.7793 89.6734 21.4314 90.0633 21.0004C90.4541 20.5615 90.7575 20.052 90.9571 19.4992ZM108.72 10.2344H112.247L106.532 25.1227H102.154L96.439 10.2344H99.9662L104.343 21.6352L108.72 10.2344ZM119.842 9.8512C124.584 9.8512 127.817 14.0537 127.21 18.972H115.657C115.657 20.2564 116.954 22.7392 120.034 22.7392C122.682 22.7392 124.457 20.4095 124.458 20.4079L126.811 22.2286C124.707 24.4738 122.985 25.5058 120.288 25.5058C115.469 25.5058 112.202 22.457 112.202 17.6785C112.202 13.356 115.579 9.8512 119.842 9.8512ZM115.666 16.3842H124.012C123.986 16.0978 123.533 12.617 119.814 12.617C116.094 12.617 115.693 16.0978 115.666 16.3842ZM129.477 25.1218V2.75879H132.96V25.1218H129.477Z" fill="#FF2D20"/>
</g>
<defs>
<clipPath id="clip0_1453_7381">
<rect width="27.1515" height="28" fill="white"/>
</clipPath>
<clipPath id="clip1_1453_7381">
<rect width="94.3448" height="24" fill="white" transform="translate(39.1523 2)"/>
</clipPath>
</defs>
</svg>
