<svg width="460" height="396" viewBox="0 0 460 396" fill="none" xmlns="http://www.w3.org/2000/svg">
<g filter="url(#filter0_i_1453_7924)">
<mask id="path-1-inside-1_1453_7924" fill="white">
<path d="M459.782 89.5856C459.925 90.1135 459.999 90.6578 460 91.2047V176.205C460 177.296 459.711 178.368 459.162 179.312C458.614 180.256 457.825 181.039 456.875 181.581L385.286 222.656V304.07C385.286 306.285 384.104 308.331 382.177 309.446L232.741 395.175C232.399 395.368 232.026 395.492 231.653 395.624C231.513 395.67 231.38 395.756 231.233 395.794C230.188 396.069 229.09 396.069 228.046 395.794C227.874 395.748 227.719 395.655 227.556 395.593C227.214 395.469 226.856 395.361 226.53 395.175L77.1251 309.446C76.1759 308.903 75.3873 308.12 74.8387 307.176C74.29 306.232 74.0008 305.16 74 304.07V49.0686C74 48.5109 74.0777 47.9686 74.2177 47.4418C74.2643 47.2636 74.3731 47.1009 74.4353 46.9227C74.5519 46.5973 74.6608 46.2642 74.8318 45.9621C74.9484 45.7607 75.1194 45.598 75.2594 45.412C75.4382 45.1641 75.6014 44.9085 75.8113 44.6916C75.9901 44.5134 76.2233 44.3817 76.4254 44.2268C76.6509 44.0408 76.853 43.8394 77.1095 43.6922L151.823 0.827934C152.769 0.285491 153.842 0 154.933 0C156.024 0 157.097 0.285491 158.042 0.827934L232.749 43.6922H232.764C233.013 43.8471 233.223 44.0408 233.448 44.219C233.65 44.374 233.876 44.5134 234.055 44.6838C234.272 44.9085 234.428 45.1641 234.614 45.412C234.747 45.598 234.925 45.7607 235.034 45.9621C235.213 46.272 235.314 46.5973 235.438 46.9227C235.501 47.1009 235.609 47.2636 235.656 47.4495C235.799 47.9775 235.872 48.5218 235.874 49.0686V208.34L298.126 172.618V91.197C298.126 90.6547 298.204 90.1046 298.344 89.5856C298.398 89.3996 298.499 89.237 298.562 89.0588C298.686 88.7334 298.795 88.4003 298.966 88.0981C299.082 87.8967 299.253 87.734 299.386 87.5481C299.572 87.3002 299.728 87.0445 299.945 86.8276C300.124 86.6495 300.35 86.5177 300.552 86.3628C300.785 86.1769 300.987 85.9755 301.236 85.8283L375.957 42.964C376.903 42.4208 377.976 42.1349 379.067 42.1349C380.159 42.1349 381.231 42.4208 382.177 42.964L456.883 85.8283C457.147 85.9832 457.349 86.1769 457.582 86.3551C457.777 86.51 458.002 86.6495 458.181 86.8199C458.399 87.0445 458.554 87.3002 458.741 87.5481C458.881 87.734 459.052 87.8967 459.16 88.0981C459.339 88.4003 459.44 88.7334 459.565 89.0588C459.635 89.237 459.736 89.3996 459.782 89.5856ZM447.546 172.618V101.934L421.403 116.933L385.286 137.656V208.34L447.554 172.618H447.546ZM372.84 300.483V229.752L337.314 249.972L235.866 307.672V379.069L372.84 300.483ZM86.4536 59.7983V300.483L223.412 379.061V307.68L151.862 267.326L151.839 267.31L151.808 267.294C151.567 267.155 151.365 266.954 151.139 266.783C150.945 266.628 150.72 266.504 150.549 266.334L150.533 266.311C150.331 266.117 150.191 265.877 150.02 265.66C149.864 265.451 149.678 265.273 149.554 265.056L149.546 265.032C149.406 264.8 149.32 264.521 149.219 264.258C149.118 264.025 148.986 263.808 148.924 263.56C148.846 263.266 148.831 262.948 148.799 262.646C148.768 262.414 148.706 262.181 148.706 261.949V95.5198L112.597 74.7888L86.4536 59.7983ZM154.941 13.3626L92.696 49.0686L154.925 84.7747L217.162 49.0609L154.925 13.3626H154.941ZM187.311 236.198L223.42 215.482V59.7983L197.277 74.7965L161.16 95.5198V251.204L187.311 236.198ZM379.067 55.4987L316.83 91.2047L379.067 126.911L441.296 91.197L379.067 55.4987ZM372.84 137.656L336.723 116.933L310.58 101.934V172.618L346.689 193.334L372.84 208.34V137.656ZM229.631 296.942L320.919 245.006L366.551 219.054L304.361 183.371L232.756 224.453L167.495 261.895L229.631 296.942Z"/>
</mask>
<path d="M459.782 89.5856C459.925 90.1135 459.999 90.6578 460 91.2047V176.205C460 177.296 459.711 178.368 459.162 179.312C458.614 180.256 457.825 181.039 456.875 181.581L385.286 222.656V304.07C385.286 306.285 384.104 308.331 382.177 309.446L232.741 395.175C232.399 395.368 232.026 395.492 231.653 395.624C231.513 395.67 231.38 395.756 231.233 395.794C230.188 396.069 229.09 396.069 228.046 395.794C227.874 395.748 227.719 395.655 227.556 395.593C227.214 395.469 226.856 395.361 226.53 395.175L77.1251 309.446C76.1759 308.903 75.3873 308.12 74.8387 307.176C74.29 306.232 74.0008 305.16 74 304.07V49.0686C74 48.5109 74.0777 47.9686 74.2177 47.4418C74.2643 47.2636 74.3731 47.1009 74.4353 46.9227C74.5519 46.5973 74.6608 46.2642 74.8318 45.9621C74.9484 45.7607 75.1194 45.598 75.2594 45.412C75.4382 45.1641 75.6014 44.9085 75.8113 44.6916C75.9901 44.5134 76.2233 44.3817 76.4254 44.2268C76.6509 44.0408 76.853 43.8394 77.1095 43.6922L151.823 0.827934C152.769 0.285491 153.842 0 154.933 0C156.024 0 157.097 0.285491 158.042 0.827934L232.749 43.6922H232.764C233.013 43.8471 233.223 44.0408 233.448 44.219C233.65 44.374 233.876 44.5134 234.055 44.6838C234.272 44.9085 234.428 45.1641 234.614 45.412C234.747 45.598 234.925 45.7607 235.034 45.9621C235.213 46.272 235.314 46.5973 235.438 46.9227C235.501 47.1009 235.609 47.2636 235.656 47.4495C235.799 47.9775 235.872 48.5218 235.874 49.0686V208.34L298.126 172.618V91.197C298.126 90.6547 298.204 90.1046 298.344 89.5856C298.398 89.3996 298.499 89.237 298.562 89.0588C298.686 88.7334 298.795 88.4003 298.966 88.0981C299.082 87.8967 299.253 87.734 299.386 87.5481C299.572 87.3002 299.728 87.0445 299.945 86.8276C300.124 86.6495 300.35 86.5177 300.552 86.3628C300.785 86.1769 300.987 85.9755 301.236 85.8283L375.957 42.964C376.903 42.4208 377.976 42.1349 379.067 42.1349C380.159 42.1349 381.231 42.4208 382.177 42.964L456.883 85.8283C457.147 85.9832 457.349 86.1769 457.582 86.3551C457.777 86.51 458.002 86.6495 458.181 86.8199C458.399 87.0445 458.554 87.3002 458.741 87.5481C458.881 87.734 459.052 87.8967 459.16 88.0981C459.339 88.4003 459.44 88.7334 459.565 89.0588C459.635 89.237 459.736 89.3996 459.782 89.5856ZM447.546 172.618V101.934L421.403 116.933L385.286 137.656V208.34L447.554 172.618H447.546ZM372.84 300.483V229.752L337.314 249.972L235.866 307.672V379.069L372.84 300.483ZM86.4536 59.7983V300.483L223.412 379.061V307.68L151.862 267.326L151.839 267.31L151.808 267.294C151.567 267.155 151.365 266.954 151.139 266.783C150.945 266.628 150.72 266.504 150.549 266.334L150.533 266.311C150.331 266.117 150.191 265.877 150.02 265.66C149.864 265.451 149.678 265.273 149.554 265.056L149.546 265.032C149.406 264.8 149.32 264.521 149.219 264.258C149.118 264.025 148.986 263.808 148.924 263.56C148.846 263.266 148.831 262.948 148.799 262.646C148.768 262.414 148.706 262.181 148.706 261.949V95.5198L112.597 74.7888L86.4536 59.7983ZM154.941 13.3626L92.696 49.0686L154.925 84.7747L217.162 49.0609L154.925 13.3626H154.941ZM187.311 236.198L223.42 215.482V59.7983L197.277 74.7965L161.16 95.5198V251.204L187.311 236.198ZM379.067 55.4987L316.83 91.2047L379.067 126.911L441.296 91.197L379.067 55.4987ZM372.84 137.656L336.723 116.933L310.58 101.934V172.618L346.689 193.334L372.84 208.34V137.656ZM229.631 296.942L320.919 245.006L366.551 219.054L304.361 183.371L232.756 224.453L167.495 261.895L229.631 296.942Z" stroke="url(#paint0_linear_1453_7924)" stroke-width="2" mask="url(#path-1-inside-1_1453_7924)"/>
</g>
<defs>
<filter id="filter0_i_1453_7924" x="74" y="0" width="386" height="400" filterUnits="userSpaceOnUse" color-interpolation-filters="sRGB">
<feFlood flood-opacity="0" result="BackgroundImageFix"/>
<feBlend mode="normal" in="SourceGraphic" in2="BackgroundImageFix" result="shape"/>
<feColorMatrix in="SourceAlpha" type="matrix" values="0 0 0 0 0 0 0 0 0 0 0 0 0 0 0 0 0 0 127 0" result="hardAlpha"/>
<feOffset dy="4"/>
<feGaussianBlur stdDeviation="2"/>
<feComposite in2="hardAlpha" operator="arithmetic" k2="-1" k3="1"/>
<feColorMatrix type="matrix" values="0 0 0 0 0 0 0 0 0 0 0 0 0 0 0 0 0 0 0.25 0"/>
<feBlend mode="normal" in2="shape" result="effect1_innerShadow_1453_7924"/>
</filter>
<linearGradient id="paint0_linear_1453_7924" x1="267" y1="396" x2="267" y2="0" gradientUnits="userSpaceOnUse">
<stop stop-color="#F13D31"/>
<stop offset="1" stop-color="#06141B"/>
</linearGradient>
</defs>
</svg>
