<svg width="386" height="396" viewBox="0 0 386 396" fill="none" xmlns="http://www.w3.org/2000/svg">
<g filter="url(#filter0_i_1453_5633)">
<mask id="path-1-inside-1_1453_5633" fill="white">
<path d="M385.782 89.5856C385.925 90.1135 385.999 90.6578 386 91.2047V176.205C386 177.296 385.711 178.368 385.162 179.312C384.614 180.256 383.825 181.039 382.875 181.581L311.286 222.656V304.07C311.286 306.285 310.104 308.331 308.177 309.446L158.741 395.175C158.399 395.368 158.026 395.492 157.653 395.624C157.513 395.67 157.38 395.756 157.233 395.794C156.188 396.069 155.09 396.069 154.046 395.794C153.874 395.748 153.719 395.655 153.556 395.593C153.214 395.469 152.856 395.361 152.53 395.175L3.12507 309.446C2.17594 308.903 1.38732 308.12 0.838672 307.176C0.290028 306.232 0.000752032 305.16 0 304.07L0 49.0686C0 48.5109 0.077738 47.9686 0.217666 47.4418C0.264309 47.2636 0.373142 47.1009 0.435333 46.9227C0.551939 46.5973 0.660773 46.2642 0.831796 45.9621C0.948403 45.7607 1.11943 45.598 1.25935 45.412C1.43815 45.1641 1.6014 44.9085 1.81129 44.6916C1.99009 44.5134 2.22331 44.3817 2.42542 44.2268C2.65086 44.0408 2.85298 43.8394 3.10952 43.6922L77.8235 0.827934C78.7694 0.285491 79.8416 0 80.933 0C82.0243 0 83.0966 0.285491 84.0425 0.827934L158.749 43.6922H158.764C159.013 43.8471 159.223 44.0408 159.448 44.219C159.65 44.374 159.876 44.5134 160.055 44.6838C160.272 44.9085 160.428 45.1641 160.614 45.412C160.747 45.598 160.925 45.7607 161.034 45.9621C161.213 46.272 161.314 46.5973 161.438 46.9227C161.501 47.1009 161.609 47.2636 161.656 47.4495C161.799 47.9775 161.872 48.5218 161.874 49.0686V208.34L224.126 172.618V91.197C224.126 90.6547 224.204 90.1046 224.344 89.5856C224.398 89.3996 224.499 89.237 224.562 89.0588C224.686 88.7334 224.795 88.4003 224.966 88.0981C225.082 87.8967 225.253 87.734 225.386 87.5481C225.572 87.3002 225.728 87.0445 225.945 86.8276C226.124 86.6495 226.35 86.5177 226.552 86.3628C226.785 86.1769 226.987 85.9755 227.236 85.8283L301.957 42.964C302.903 42.4208 303.976 42.1349 305.067 42.1349C306.159 42.1349 307.231 42.4208 308.177 42.964L382.883 85.8283C383.147 85.9832 383.349 86.1769 383.582 86.3551C383.777 86.51 384.002 86.6495 384.181 86.8199C384.399 87.0445 384.554 87.3002 384.741 87.5481C384.881 87.734 385.052 87.8967 385.16 88.0981C385.339 88.4003 385.44 88.7334 385.565 89.0588C385.635 89.237 385.736 89.3996 385.782 89.5856ZM373.546 172.618V101.934L347.403 116.933L311.286 137.656V208.34L373.554 172.618H373.546ZM298.84 300.483V229.752L263.314 249.972L161.866 307.672V379.069L298.84 300.483ZM12.4536 59.7983V300.483L149.412 379.061V307.68L77.8623 267.326L77.839 267.31L77.8079 267.294C77.5669 267.155 77.3648 266.954 77.1394 266.783C76.945 266.628 76.7196 266.504 76.5486 266.334L76.533 266.311C76.3309 266.117 76.191 265.877 76.0199 265.66C75.8645 265.451 75.6779 265.273 75.5535 265.056L75.5457 265.032C75.4058 264.8 75.3203 264.521 75.2192 264.258C75.1182 264.025 74.986 263.808 74.9238 263.56C74.8461 263.266 74.8305 262.948 74.7995 262.646C74.7684 262.414 74.7062 262.181 74.7062 261.949V95.5198L38.5969 74.7888L12.4536 59.7983ZM80.9408 13.3626L18.696 49.0686L80.9252 84.7747L143.162 49.0609L80.9252 13.3626H80.9408ZM113.311 236.198L149.42 215.482V59.7983L123.277 74.7965L87.1598 95.5198V251.204L113.311 236.198ZM305.067 55.4987L242.83 91.2047L305.067 126.911L367.296 91.197L305.067 55.4987ZM298.84 137.656L262.723 116.933L236.58 101.934V172.618L272.689 193.334L298.84 208.34V137.656ZM155.631 296.942L246.919 245.006L292.551 219.054L230.361 183.371L158.756 224.453L93.4954 261.895L155.631 296.942Z"/>
</mask>
<path d="M385.782 89.5856C385.925 90.1135 385.999 90.6578 386 91.2047V176.205C386 177.296 385.711 178.368 385.162 179.312C384.614 180.256 383.825 181.039 382.875 181.581L311.286 222.656V304.07C311.286 306.285 310.104 308.331 308.177 309.446L158.741 395.175C158.399 395.368 158.026 395.492 157.653 395.624C157.513 395.67 157.38 395.756 157.233 395.794C156.188 396.069 155.09 396.069 154.046 395.794C153.874 395.748 153.719 395.655 153.556 395.593C153.214 395.469 152.856 395.361 152.53 395.175L3.12507 309.446C2.17594 308.903 1.38732 308.12 0.838672 307.176C0.290028 306.232 0.000752032 305.16 0 304.07L0 49.0686C0 48.5109 0.077738 47.9686 0.217666 47.4418C0.264309 47.2636 0.373142 47.1009 0.435333 46.9227C0.551939 46.5973 0.660773 46.2642 0.831796 45.9621C0.948403 45.7607 1.11943 45.598 1.25935 45.412C1.43815 45.1641 1.6014 44.9085 1.81129 44.6916C1.99009 44.5134 2.22331 44.3817 2.42542 44.2268C2.65086 44.0408 2.85298 43.8394 3.10952 43.6922L77.8235 0.827934C78.7694 0.285491 79.8416 0 80.933 0C82.0243 0 83.0966 0.285491 84.0425 0.827934L158.749 43.6922H158.764C159.013 43.8471 159.223 44.0408 159.448 44.219C159.65 44.374 159.876 44.5134 160.055 44.6838C160.272 44.9085 160.428 45.1641 160.614 45.412C160.747 45.598 160.925 45.7607 161.034 45.9621C161.213 46.272 161.314 46.5973 161.438 46.9227C161.501 47.1009 161.609 47.2636 161.656 47.4495C161.799 47.9775 161.872 48.5218 161.874 49.0686V208.34L224.126 172.618V91.197C224.126 90.6547 224.204 90.1046 224.344 89.5856C224.398 89.3996 224.499 89.237 224.562 89.0588C224.686 88.7334 224.795 88.4003 224.966 88.0981C225.082 87.8967 225.253 87.734 225.386 87.5481C225.572 87.3002 225.728 87.0445 225.945 86.8276C226.124 86.6495 226.35 86.5177 226.552 86.3628C226.785 86.1769 226.987 85.9755 227.236 85.8283L301.957 42.964C302.903 42.4208 303.976 42.1349 305.067 42.1349C306.159 42.1349 307.231 42.4208 308.177 42.964L382.883 85.8283C383.147 85.9832 383.349 86.1769 383.582 86.3551C383.777 86.51 384.002 86.6495 384.181 86.8199C384.399 87.0445 384.554 87.3002 384.741 87.5481C384.881 87.734 385.052 87.8967 385.16 88.0981C385.339 88.4003 385.44 88.7334 385.565 89.0588C385.635 89.237 385.736 89.3996 385.782 89.5856ZM373.546 172.618V101.934L347.403 116.933L311.286 137.656V208.34L373.554 172.618H373.546ZM298.84 300.483V229.752L263.314 249.972L161.866 307.672V379.069L298.84 300.483ZM12.4536 59.7983V300.483L149.412 379.061V307.68L77.8623 267.326L77.839 267.31L77.8079 267.294C77.5669 267.155 77.3648 266.954 77.1394 266.783C76.945 266.628 76.7196 266.504 76.5486 266.334L76.533 266.311C76.3309 266.117 76.191 265.877 76.0199 265.66C75.8645 265.451 75.6779 265.273 75.5535 265.056L75.5457 265.032C75.4058 264.8 75.3203 264.521 75.2192 264.258C75.1182 264.025 74.986 263.808 74.9238 263.56C74.8461 263.266 74.8305 262.948 74.7995 262.646C74.7684 262.414 74.7062 262.181 74.7062 261.949V95.5198L38.5969 74.7888L12.4536 59.7983ZM80.9408 13.3626L18.696 49.0686L80.9252 84.7747L143.162 49.0609L80.9252 13.3626H80.9408ZM113.311 236.198L149.42 215.482V59.7983L123.277 74.7965L87.1598 95.5198V251.204L113.311 236.198ZM305.067 55.4987L242.83 91.2047L305.067 126.911L367.296 91.197L305.067 55.4987ZM298.84 137.656L262.723 116.933L236.58 101.934V172.618L272.689 193.334L298.84 208.34V137.656ZM155.631 296.942L246.919 245.006L292.551 219.054L230.361 183.371L158.756 224.453L93.4954 261.895L155.631 296.942Z" stroke="url(#paint0_linear_1453_5633)" stroke-width="2" mask="url(#path-1-inside-1_1453_5633)"/>
</g>
<defs>
<filter id="filter0_i_1453_5633" x="0" y="0" width="386" height="400" filterUnits="userSpaceOnUse" color-interpolation-filters="sRGB">
<feFlood flood-opacity="0" result="BackgroundImageFix"/>
<feBlend mode="normal" in="SourceGraphic" in2="BackgroundImageFix" result="shape"/>
<feColorMatrix in="SourceAlpha" type="matrix" values="0 0 0 0 0 0 0 0 0 0 0 0 0 0 0 0 0 0 127 0" result="hardAlpha"/>
<feOffset dy="4"/>
<feGaussianBlur stdDeviation="2"/>
<feComposite in2="hardAlpha" operator="arithmetic" k2="-1" k3="1"/>
<feColorMatrix type="matrix" values="0 0 0 0 0 0 0 0 0 0 0 0 0 0 0 0 0 0 0.25 0"/>
<feBlend mode="normal" in2="shape" result="effect1_innerShadow_1453_5633"/>
</filter>
<linearGradient id="paint0_linear_1453_5633" x1="193" y1="396" x2="193" y2="0" gradientUnits="userSpaceOnUse">
<stop stop-color="#F13D31"/>
<stop offset="1" stop-color="#06141B"/>
</linearGradient>
</defs>
</svg>
