<svg width="520" height="534" viewBox="0 0 520 534" fill="none" xmlns="http://www.w3.org/2000/svg">
<g filter="url(#filter0_i_1453_5630)">
<mask id="path-1-inside-1_1453_5630" fill="white">
<path d="M518.783 121.291C518.975 122.001 519.073 122.733 519.075 123.469V237.82C519.075 239.288 518.687 240.729 517.949 241.999C517.211 243.269 516.15 244.323 514.873 245.053L418.603 300.311V409.836C418.603 412.817 417.014 415.568 414.422 417.069L213.468 532.4C213.008 532.66 212.506 532.827 212.004 533.004C211.816 533.067 211.638 533.181 211.439 533.234C210.035 533.602 208.558 533.602 207.153 533.234C206.923 533.171 206.714 533.046 206.495 532.963C206.035 532.796 205.554 532.65 205.115 532.4L4.20245 417.069C2.92611 416.338 1.8656 415.285 1.12781 414.015C0.390016 412.745 0.0010113 411.304 0 409.836L0 66.7835C0 66.0331 0.104538 65.3036 0.292708 64.5949C0.355431 64.3552 0.501785 64.1363 0.585415 63.8966C0.742223 63.4589 0.888577 63.0107 1.11856 62.6043C1.27537 62.3333 1.50535 62.1144 1.69352 61.8643C1.93396 61.5308 2.15349 61.1869 2.43575 60.895C2.67618 60.6553 2.9898 60.4782 3.2616 60.2697C3.56476 60.0196 3.83656 59.7486 4.18154 59.5506L104.653 1.8853C105.925 1.15556 107.367 0.771484 108.835 0.771484C110.303 0.771484 111.744 1.15556 113.017 1.8853L213.478 59.5506H213.499C213.833 59.759 214.116 60.0196 214.419 60.2593C214.691 60.4677 214.994 60.6553 215.234 60.8846C215.527 61.1869 215.736 61.5308 215.987 61.8643C216.165 62.1144 216.405 62.3333 216.551 62.6043C216.792 63.0211 216.928 63.4589 217.095 63.8966C217.179 64.1363 217.325 64.3552 217.388 64.6053C217.58 65.3155 217.679 66.0478 217.68 66.7835V281.051L301.395 232.995V123.459C301.395 122.729 301.499 121.989 301.688 121.291C301.761 121.041 301.897 120.822 301.98 120.582C302.147 120.145 302.294 119.696 302.524 119.29C302.681 119.019 302.911 118.8 303.088 118.55C303.339 118.216 303.548 117.872 303.841 117.581C304.081 117.341 304.385 117.164 304.656 116.955C304.97 116.705 305.242 116.434 305.576 116.236L406.059 58.5709C407.33 57.8402 408.772 57.4555 410.24 57.4555C411.708 57.4555 413.15 57.8402 414.422 58.5709L514.883 116.236C515.239 116.445 515.51 116.705 515.824 116.945C516.085 117.153 516.389 117.341 516.629 117.57C516.922 117.872 517.131 118.216 517.382 118.55C517.57 118.8 517.8 119.019 517.946 119.29C518.187 119.696 518.323 120.145 518.49 120.582C518.584 120.822 518.72 121.041 518.783 121.291ZM502.328 232.995V137.904L467.172 158.081L418.603 185.96V281.051L502.339 232.995H502.328ZM401.867 405.011V309.857L354.093 337.059L217.67 414.683V510.732L401.867 405.011ZM16.7471 81.2181V405.011L200.923 510.722V414.693L104.706 360.404L104.674 360.384L104.633 360.363C104.308 360.175 104.037 359.904 103.734 359.675C103.472 359.466 103.169 359.3 102.939 359.07L102.918 359.039C102.646 358.779 102.458 358.455 102.228 358.164C102.019 357.882 101.768 357.643 101.601 357.351L101.59 357.319C101.402 357.007 101.287 356.632 101.151 356.277C101.016 355.965 100.838 355.673 100.754 355.339C100.65 354.943 100.629 354.516 100.587 354.109C100.545 353.797 100.461 353.484 100.461 353.171V129.274L51.9033 101.385L16.7471 81.2181ZM108.845 18.7482L25.1415 66.7835L108.825 114.819L192.518 66.7731L108.825 18.7482H108.845ZM152.375 318.529L200.933 290.66V81.2181L165.777 101.395L117.209 129.274V338.716L152.375 318.529ZM410.24 75.4338L326.547 123.469L410.24 171.504L493.923 123.459L410.24 75.4338ZM401.867 185.96L353.298 158.081L318.142 137.904V232.995L366.7 260.863L401.867 281.051V185.96ZM209.286 400.248L332.046 330.378L393.41 295.464L309.779 247.46L213.488 302.729L125.728 353.099L209.286 400.248Z"/>
</mask>
<path d="M518.783 121.291C518.975 122.001 519.073 122.733 519.075 123.469V237.82C519.075 239.288 518.687 240.729 517.949 241.999C517.211 243.269 516.15 244.323 514.873 245.053L418.603 300.311V409.836C418.603 412.817 417.014 415.568 414.422 417.069L213.468 532.4C213.008 532.66 212.506 532.827 212.004 533.004C211.816 533.067 211.638 533.181 211.439 533.234C210.035 533.602 208.558 533.602 207.153 533.234C206.923 533.171 206.714 533.046 206.495 532.963C206.035 532.796 205.554 532.65 205.115 532.4L4.20245 417.069C2.92611 416.338 1.8656 415.285 1.12781 414.015C0.390016 412.745 0.0010113 411.304 0 409.836L0 66.7835C0 66.0331 0.104538 65.3036 0.292708 64.5949C0.355431 64.3552 0.501785 64.1363 0.585415 63.8966C0.742223 63.4589 0.888577 63.0107 1.11856 62.6043C1.27537 62.3333 1.50535 62.1144 1.69352 61.8643C1.93396 61.5308 2.15349 61.1869 2.43575 60.895C2.67618 60.6553 2.9898 60.4782 3.2616 60.2697C3.56476 60.0196 3.83656 59.7486 4.18154 59.5506L104.653 1.8853C105.925 1.15556 107.367 0.771484 108.835 0.771484C110.303 0.771484 111.744 1.15556 113.017 1.8853L213.478 59.5506H213.499C213.833 59.759 214.116 60.0196 214.419 60.2593C214.691 60.4677 214.994 60.6553 215.234 60.8846C215.527 61.1869 215.736 61.5308 215.987 61.8643C216.165 62.1144 216.405 62.3333 216.551 62.6043C216.792 63.0211 216.928 63.4589 217.095 63.8966C217.179 64.1363 217.325 64.3552 217.388 64.6053C217.58 65.3155 217.679 66.0478 217.68 66.7835V281.051L301.395 232.995V123.459C301.395 122.729 301.499 121.989 301.688 121.291C301.761 121.041 301.897 120.822 301.98 120.582C302.147 120.145 302.294 119.696 302.524 119.29C302.681 119.019 302.911 118.8 303.088 118.55C303.339 118.216 303.548 117.872 303.841 117.581C304.081 117.341 304.385 117.164 304.656 116.955C304.97 116.705 305.242 116.434 305.576 116.236L406.059 58.5709C407.33 57.8402 408.772 57.4555 410.24 57.4555C411.708 57.4555 413.15 57.8402 414.422 58.5709L514.883 116.236C515.239 116.445 515.51 116.705 515.824 116.945C516.085 117.153 516.389 117.341 516.629 117.57C516.922 117.872 517.131 118.216 517.382 118.55C517.57 118.8 517.8 119.019 517.946 119.29C518.187 119.696 518.323 120.145 518.49 120.582C518.584 120.822 518.72 121.041 518.783 121.291ZM502.328 232.995V137.904L467.172 158.081L418.603 185.96V281.051L502.339 232.995H502.328ZM401.867 405.011V309.857L354.093 337.059L217.67 414.683V510.732L401.867 405.011ZM16.7471 81.2181V405.011L200.923 510.722V414.693L104.706 360.404L104.674 360.384L104.633 360.363C104.308 360.175 104.037 359.904 103.734 359.675C103.472 359.466 103.169 359.3 102.939 359.07L102.918 359.039C102.646 358.779 102.458 358.455 102.228 358.164C102.019 357.882 101.768 357.643 101.601 357.351L101.59 357.319C101.402 357.007 101.287 356.632 101.151 356.277C101.016 355.965 100.838 355.673 100.754 355.339C100.65 354.943 100.629 354.516 100.587 354.109C100.545 353.797 100.461 353.484 100.461 353.171V129.274L51.9033 101.385L16.7471 81.2181ZM108.845 18.7482L25.1415 66.7835L108.825 114.819L192.518 66.7731L108.825 18.7482H108.845ZM152.375 318.529L200.933 290.66V81.2181L165.777 101.395L117.209 129.274V338.716L152.375 318.529ZM410.24 75.4338L326.547 123.469L410.24 171.504L493.923 123.459L410.24 75.4338ZM401.867 185.96L353.298 158.081L318.142 137.904V232.995L366.7 260.863L401.867 281.051V185.96ZM209.286 400.248L332.046 330.378L393.41 295.464L309.779 247.46L213.488 302.729L125.728 353.099L209.286 400.248Z" stroke="url(#paint0_linear_1453_5630)" stroke-width="2" mask="url(#path-1-inside-1_1453_5630)"/>
</g>
<defs>
<filter id="filter0_i_1453_5630" x="0" y="0.771484" width="519.074" height="536.739" filterUnits="userSpaceOnUse" color-interpolation-filters="sRGB">
<feFlood flood-opacity="0" result="BackgroundImageFix"/>
<feBlend mode="normal" in="SourceGraphic" in2="BackgroundImageFix" result="shape"/>
<feColorMatrix in="SourceAlpha" type="matrix" values="0 0 0 0 0 0 0 0 0 0 0 0 0 0 0 0 0 0 127 0" result="hardAlpha"/>
<feOffset dy="4"/>
<feGaussianBlur stdDeviation="2"/>
<feComposite in2="hardAlpha" operator="arithmetic" k2="-1" k3="1"/>
<feColorMatrix type="matrix" values="0 0 0 0 0 0 0 0 0 0 0 0 0 0 0 0 0 0 0.25 0"/>
<feBlend mode="normal" in2="shape" result="effect1_innerShadow_1453_5630"/>
</filter>
<linearGradient id="paint0_linear_1453_5630" x1="259.538" y1="533.51" x2="259.538" y2="0.771484" gradientUnits="userSpaceOnUse">
<stop stop-color="#F13D31"/>
<stop offset="1" stop-color="#06141B"/>
</linearGradient>
</defs>
</svg>
