<svg xmlns="http://www.w3.org/2000/svg" width="100" height="45"><path d="M.911 19.57h1.98v21.332H.911V19.57zm6.782-.396c.451 0 .836.161 1.155.481.319.321.479.708.479 1.16 0 .443-.16.825-.479 1.146a1.57 1.57 0 0 1-1.155.481c-.441 0-.822-.16-1.141-.481a1.567 1.567 0 0 1-.479-1.146c0-.453.16-.839.479-1.16.32-.321.7-.481 1.141-.481zm-.983 6.337h1.98v15.391H6.71V25.511zm5.8-5.941h1.98v21.332h-1.98V19.57zm21.43 5.941v15.391h-1.952v-2.646c-.83 1.01-1.761 1.769-2.794 2.277-1.032.51-2.162.765-3.388.765-2.178 0-4.039-.79-5.581-2.37-1.542-1.579-2.313-3.501-2.313-5.764 0-2.216.778-4.111 2.334-5.687s3.428-2.362 5.616-2.362c1.264 0 2.407.269 3.43.806 1.023.538 1.921 1.344 2.695 2.419v-2.829h1.953zm-7.914 1.513a5.968 5.968 0 0 0-5.278 3.095 6.244 6.244 0 0 0-.826 3.108c0 1.083.278 2.119.833 3.108a6.074 6.074 0 0 0 2.239 2.311 5.852 5.852 0 0 0 3.017.826c1.083 0 2.11-.273 3.08-.819.97-.547 1.717-1.286 2.24-2.219.522-.933.784-1.982.784-3.15 0-1.78-.586-3.269-1.759-4.465s-2.616-1.795-4.33-1.795zm38.892-11.462l-6.618-.061c-7.17-.517-13.172-5.876-7.706-12.154 0 0 7.876-10.288 14.324 12.215zm.804 0l6.158-.011c7.252-.332 16.417-1.775 10.811-9.543 0 0-6.289-9.866-17.255 9.555m-31.714 1.196v6.381h2.167v19.672H97.01v-19.73h2.166v-6.323H33.722zm15.14 24.143l-7.751-6.93v6.93h-1.98v-21.33h1.98v12.152l7.136-6.212h2.907l-8.459 7.345 8.955 8.046h-2.788zm18.036-7.836c0 2.121-.247 3.719-.743 4.797-.496 1.071-1.241 1.913-2.235 2.522s-2.242.912-3.741.912-2.751-.303-3.755-.912a5.623 5.623 0 0 1-2.25-2.548c-.495-1.085-.743-2.724-.743-4.911v-7.415h1.98v7.185c0 1.755.096 2.963.283 3.623.284.944.825 1.69 1.622 2.235.799.546 1.749.82 2.854.82 1.104 0 2.042-.269 2.813-.798a4.094 4.094 0 0 0 1.595-2.104c.197-.593.297-1.85.297-3.776v-7.185h2.023v7.555zm11.245-5.841h-3.138v13.678h-1.982V27.225h-2.701v-1.713h2.701v-5.713h1.982v5.713h3.138v1.713zm16.181 5.841c0 2.121-.245 3.719-.739 4.797a5.731 5.731 0 0 1-2.235 2.522c-.999.609-2.242.912-3.741.912s-2.752-.303-3.757-.912-1.754-1.457-2.252-2.548c-.491-1.085-.739-2.724-.739-4.911v-7.415h1.977v7.185c0 1.755.096 2.963.287 3.623.281.944.823 1.69 1.62 2.235.798.546 1.751.82 2.857.82 1.104 0 2.041-.269 2.81-.798a4.1 4.1 0 0 0 1.595-2.104c.198-.593.297-1.85.297-3.776v-7.185h2.021v7.555z" fill="#926C9E"/></svg>