<svg width="270" height="270" xmlns="http://www.w3.org/2000/svg"><g fill="none" fill-rule="evenodd"><circle fill="#67DA99" cx="135" cy="135" r="135"/><g stroke="#FFF" stroke-linecap="round" stroke-width="4"><path d="M136 176c-22.091 0-40-17.907-40-40 0-15.345 8.65-28.657 21.333-35.366v14.04M136 96c22.09 0 40 17.909 40 40 0 15.335-8.64 28.642-21.31 35.354V157.23"/><path d="M149.327 135.985c.014 7.365-5.944 13.344-13.31 13.357-7.362.014-13.343-5.944-13.356-13.306-.014-7.366 5.944-13.347 13.306-13.36 7.366-.014 13.347 5.946 13.36 13.31zm.558-.003l7.448-.013m-42.667.078l7.664-.013m13.643-14.468l-.013-6.89m.078 42.666l-.013-7m-10.323-24.592l-4.819-4.798m30.228 30.114l-5.04-5.019m-20.444.372l-4.686 4.704m30.115-30.228l-4.802 4.819"/></g></g></svg>