<svg width="72" height="54" xmlns="http://www.w3.org/2000/svg"><g fill="none" fill-rule="evenodd"><path d="M0-9h72v72H0z"/><path d="M54 33a9 9 0 1 1 0-18 9 9 0 0 1 0 18zm-27-9c-6.627 0-12-5.373-12-12S20.373 0 27 0s12 5.373 12 12-5.373 12-12 12z" fill="#3399D4" fill-rule="nonzero" opacity=".3"/><path d="M52.804 36.002c10.22.112 18.564 5.278 19.191 16.198.026.44 0 1.8-1.627 1.8H58.8a29.867 29.867 0 0 0-5.996-17.998zM.002 51.598C1.165 37.28 12.786 30 26.95 30c14.364 0 26.165 6.88 27.044 21.6.035.586 0 2.4-2.254 2.4H2.183C1.43 54-.061 52.378.002 51.598z" fill="#3399D4" fill-rule="nonzero"/></g></svg>