<svg xmlns="http://www.w3.org/2000/svg" viewBox="0 0 40 40"><g data-name="Layer 2"><g data-name="Layer 1"><path d="M20 0a20 20 0 1 0 20 20A20 20 0 0 0 20 0zm0 39a19 19 0 1 1 19-19 19 19 0 0 1-19 19z"/><path d="M16.2 17.58h-3a.18.18 0 0 0-.14.18v9.32a.18.18 0 0 0 .17.17h2.97a.18.18 0 0 0 .18-.17v-9.32a.19.19 0 0 0-.18-.18zm7.43-.34A3.24 3.24 0 0 0 21 18.51v-.75a.19.19 0 0 0-.18-.18H18.1a.18.18 0 0 0-.17.18v9.32a.18.18 0 0 0 .17.17H21a.18.18 0 0 0 .17-.17V21.9a2.11 2.11 0 0 1 .37-1.23 1 1 0 0 1 .84-.5h.34a1 1 0 0 1 .84.5A2.18 2.18 0 0 1 24 21.9v5.18a.18.18 0 0 0 .17.17h2.94a.18.18 0 0 0 .17-.17V21a4.18 4.18 0 0 0-.79-2.76 3.5 3.5 0 0 0-2.86-1zm-8.98-4.49a1.9 1.9 0 1 0 1.9 1.9 1.9 1.9 0 0 0-1.9-1.9z"/></g></g></svg>