<svg width="46" height="62" xmlns="http://www.w3.org/2000/svg"><g stroke-width="2" fill="none" fill-rule="evenodd"><path d="M45 43a8 8 0 0 0-8-8c-2.404 0-4.534 1.082-6 2.76-1.468-1.678-3.598-2.76-6.002-2.76a8 8 0 0 0-8 8c0 2.19.884 4.172 2.31 5.616L30.86 61.002h.278l12.064-13.004C44.31 46.624 45 44.902 45 43z" stroke="#C1E0F2"/><path d="M4.068 19.309l1.66-6.166c.026-.096.048-.192.064-.288l1.62-9.02A3.44 3.44 0 0 1 10.8 1h5.014A3.438 3.438 0 0 1 19.2 3.835l1.62 9.02c.018.096.04.192.066.288l1.648 6.122M14.999 61h-4.186a3.445 3.445 0 0 1-3.392-2.848l-1.624-9.266c-.02-.11-.046-.22-.076-.33l-1.64-5.88" stroke="#3399D4"/><path d="M25 27v-5.078A2.921 2.921 0 0 0 22.08 19H3.922A2.922 2.922 0 0 0 1 21.922V40.08A2.92 2.92 0 0 0 3.922 43H11" stroke="#3399D4"/></g></svg>