<svg width="58" height="62" xmlns="http://www.w3.org/2000/svg"><g stroke-width="2" fill="none" fill-rule="evenodd" stroke-linecap="round"><path d="M15.018 41l-.01 13.988a5.998 5.998 0 0 0 5.99 6.004A5.999 5.999 0 0 0 27.008 55l.006-4.028a5.99 5.99 0 0 1 5.996-5.98 5.987 5.987 0 0 1 5.98 5.996l-.004 3.986a6.012 6.012 0 0 0 12.024.016l.04-31.414M57 17.001a6 6 0 1 1-11.999.001 6 6 0 0 1 12 0z" stroke="#C1E0F2"/><path d="M6.998 1h-2A4 4 0 0 0 1 5v10l4.202 18.208a10.053 10.053 0 0 0 19.594 0L28.998 15V5a4 4 0 0 0-4-4h-2" stroke="#3399D4"/><path d="M3.002 23l5.17 5.172a9.66 9.66 0 0 0 13.658 0L27.002 23" stroke="#3399D4"/></g></svg>