<svg width="66" height="64" xmlns="http://www.w3.org/2000/svg"><g stroke-width="2" fill="none" fill-rule="evenodd" stroke-linecap="round"><path d="M58.184 55H7.816A4.816 4.816 0 0 1 3 50.182V11.815A4.816 4.816 0 0 1 7.816 7h50.368A4.816 4.816 0 0 1 63 11.815v38.368A4.816 4.816 0 0 1 58.184 55zM1 63h64.003m-12-62v11.997M39.669 1v11.997M26.337 1v11.997M13.003 1v11.997M3 19h60" stroke="#3399D4"/><path d="M40.052 45.005h-6.368a4.816 4.816 0 0 1-4.816-4.816v-6.368a4.816 4.816 0 0 1 4.816-4.816h6.368a4.816 4.816 0 0 1 4.816 4.816v6.368a4.816 4.816 0 0 1-4.816 4.816z" stroke="#C1E0F2"/></g></svg>