<svg width="14" height="22" xmlns="http://www.w3.org/2000/svg"><g fill="none" fill-rule="evenodd"><path d="M-5-1h24v24H-5z"/><path d="M3 1.5c-.69 0-1.25.56-1.25 1.25v16.5c0 .69.56 1.25 1.25 1.25h8c.69 0 1.25-.56 1.25-1.25V2.75c0-.69-.56-1.25-1.25-1.25H3z" fill="#3399D4" opacity=".3"/><path d="M3 1.5c-.69 0-1.25.56-1.25 1.25v16.5c0 .69.56 1.25 1.25 1.25h8c.69 0 1.25-.56 1.25-1.25V2.75c0-.69-.56-1.25-1.25-1.25H3zM3 0h8a2.75 2.75 0 0 1 2.75 2.75v16.5A2.75 2.75 0 0 1 11 22H3a2.75 2.75 0 0 1-2.75-2.75V2.75A2.75 2.75 0 0 1 3 0zm1.5.75h5a.5.5 0 0 1 .5.5v1a.5.5 0 0 1-.5.5h-5a.5.5 0 0 1-.5-.5v-1a.5.5 0 0 1 .5-.5z" fill="#3399D4" fill-rule="nonzero"/></g></svg>