<svg width="16" height="22" xmlns="http://www.w3.org/2000/svg"><g transform="translate(-4 -1)" fill="none" fill-rule="evenodd"><path d="M0 0h24v24H0z"/><path d="M8 3v.5A1.5 1.5 0 0 0 9.5 5h5A1.5 1.5 0 0 0 16 3.5V3h2a2 2 0 0 1 2 2v16a2 2 0 0 1-2 2H6a2 2 0 0 1-2-2V5a2 2 0 0 1 2-2h2z" fill="#3399D4" opacity=".3"/><path d="M11 2a1 1 0 0 1 2 0h1.5a.5.5 0 0 1 .5.5v1a.5.5 0 0 1-.5.5h-5a.5.5 0 0 1-.5-.5v-1a.5.5 0 0 1 .5-.5H11z" fill="#3399D4"/><rect fill="#3399D4" x="7" y="10" width="5" height="2" rx="1"/><rect fill="#3399D4" x="7" y="14" width="9" height="2" rx="1"/></g></svg>