<svg xmlns="http://www.w3.org/2000/svg" viewBox="0 0 40 40"><defs><style>.cls-1{fill:#231f20}</style></defs><g id="Layer_2" data-name="Layer 2"><g id="Layer_1-2" data-name="Layer 1"><path class="cls-1" d="M20 0a20 20 0 1 0 20 20A20 20 0 0 0 20 0zm0 39a19 19 0 1 1 19-19 19.022 19.022 0 0 1-19 19z"/><path class="cls-1" d="M27.911 13.561a6.964 6.964 0 0 1-2.182.82 3.457 3.457 0 0 0-2.507-1.067 3.406 3.406 0 0 0-3.437 3.375 3.318 3.318 0 0 0 .09.77 9.812 9.812 0 0 1-7.083-3.527 3.314 3.314 0 0 0-.465 1.698 3.358 3.358 0 0 0 1.528 2.81 3.48 3.48 0 0 1-1.556-.423v.043a3.392 3.392 0 0 0 2.756 3.309 3.45 3.45 0 0 1-.905.118 3.377 3.377 0 0 1-.646-.06 3.433 3.433 0 0 0 3.21 2.345 6.971 6.971 0 0 1-4.268 1.444 7.065 7.065 0 0 1-.82-.047 9.856 9.856 0 0 0 5.268 1.517 9.619 9.619 0 0 0 9.775-9.604c0-.146-.002-.292-.01-.437a6.901 6.901 0 0 0 1.715-1.748 6.92 6.92 0 0 1-1.974.53 3.392 3.392 0 0 0 1.511-1.866z"/></g></g></svg>