<svg xmlns="http://www.w3.org/2000/svg" viewBox="0 0 40 40"><defs><style>.cls-1{fill:#010101}</style></defs><g id="Layer_2" data-name="Layer 2"><g id="Layer_1-2" data-name="Layer 1"><path class="cls-1" d="M20 0a20 20 0 1 0 20 20A20 20 0 0 0 20 0zm0 39a19 19 0 1 1 19-19 19.022 19.022 0 0 1-19 19z"/><path class="cls-1" d="M25.47 14.276H14.53a2.798 2.798 0 0 0-2.798 2.798v5.852a2.798 2.798 0 0 0 2.798 2.798h10.94a2.798 2.798 0 0 0 2.798-2.798v-5.852a2.798 2.798 0 0 0-2.798-2.798zm-2.176 5.783a.127.127 0 0 1-.055.055v-.002l-4.961 2.544a.127.127 0 0 1-.186-.112v-5.088a.127.127 0 0 1 .186-.112l4.96 2.544a.127.127 0 0 1 .056.171z"/></g></g></svg>