<svg width="32" height="32" viewBox="0 0 32 32" fill="none" xmlns="http://www.w3.org/2000/svg">
<path d="M24.2995 17.4326V23.5818H20.7345V17.8443C20.7345 16.4026 20.2187 15.4193 18.9287 15.4193C17.9437 15.4193 17.357 16.0826 17.0995 16.7235C17.0053 16.9526 16.9812 17.2718 16.9812 17.5926V23.5818H13.4145C13.4145 23.5818 13.4628 13.8651 13.4145 12.8576H16.9812V14.3776L16.9578 14.4126H16.9812V14.3776C17.4545 13.6485 18.3003 12.606 20.1945 12.606C22.5403 12.606 24.2995 14.1393 24.2995 17.4326ZM9.68449 7.68848C8.46533 7.68848 7.66699 8.48848 7.66699 9.54098C7.66699 10.5701 8.44199 11.3943 9.63783 11.3943H9.66116C10.9053 11.3943 11.6778 10.5701 11.6778 9.54098C11.6562 8.48848 10.9062 7.68848 9.68533 7.68848H9.68449ZM7.87866 23.5818H11.4437V12.8576H7.87866V23.5818Z" fill="#EBEBEB"/>
</svg>
