<svg width="24" height="24" viewBox="0 0 24 24" fill="none" xmlns="http://www.w3.org/2000/svg">
<path d="M18.9643 6H5.03571C4.7394 6 4.5 6.24375 4.5 6.54545V17.4545C4.5 17.7563 4.7394 18 5.03571 18H18.9643C19.2606 18 19.5 17.7563 19.5 17.4545V6.54545C19.5 6.24375 19.2606 6 18.9643 6ZM17.6116 7.85625L12.3298 12.0409C12.1992 12.1449 12.0167 12.1449 11.8862 12.0409L6.60268 7.85625C6.58276 7.8406 6.56815 7.819 6.5609 7.79447C6.55365 7.76994 6.55412 7.74372 6.56224 7.71947C6.57036 7.69523 6.58573 7.67418 6.60619 7.65927C6.62665 7.64437 6.65118 7.63636 6.67634 7.63636H17.5379C17.5631 7.63636 17.5876 7.64437 17.6081 7.65927C17.6286 7.67418 17.6439 7.69523 17.652 7.71947C17.6602 7.74372 17.6606 7.76994 17.6534 7.79447C17.6461 7.819 17.6315 7.8406 17.6116 7.85625Z" fill="#14A2DF"/>
</svg>
