<svg width="20" height="20" viewBox="0 0 20 20" fill="none" xmlns="http://www.w3.org/2000/svg">
<path d="M18.4683 4.71376C17.8321 4.99517 17.1574 5.17999 16.4666 5.26209C17.1947 4.82662 17.7397 4.14127 17.9999 3.33376C17.3166 3.74043 16.5674 4.02543 15.7866 4.17959C15.2621 3.61841 14.5669 3.24623 13.8091 3.12091C13.0512 2.9956 12.2732 3.12417 11.596 3.48664C10.9187 3.84911 10.3802 4.42516 10.0642 5.12525C9.74812 5.82535 9.67221 6.61024 9.84826 7.35793C8.46251 7.28847 7.10687 6.92836 5.86933 6.30098C4.63179 5.6736 3.54003 4.79297 2.66492 3.71626C2.35516 4.2483 2.19238 4.85312 2.19326 5.46876C2.19326 6.67709 2.80826 7.74459 3.74326 8.36959C3.18993 8.35217 2.64878 8.20274 2.16492 7.93376V7.97709C2.16509 8.78184 2.44356 9.56177 2.95313 10.1846C3.46269 10.8075 4.17199 11.235 4.96076 11.3946C4.4471 11.5338 3.90851 11.5543 3.38576 11.4546C3.60814 12.1473 4.04159 12.7531 4.62542 13.1872C5.20924 13.6213 5.9142 13.8619 6.64159 13.8754C5.91866 14.4432 5.0909 14.8629 4.20566 15.1106C3.32041 15.3582 2.39503 15.429 1.48242 15.3188C3.0755 16.3433 4.93 16.8872 6.82409 16.8854C13.2349 16.8854 16.7408 11.5746 16.7408 6.96876C16.7408 6.81876 16.7366 6.66709 16.7299 6.51876C17.4123 6.02557 18.0013 5.41461 18.4691 4.71459L18.4683 4.71376Z" fill="#EBEBEB"/>
</svg>
